<?xml version="1.0" standalone="no"?>
<!DOCTYPE svg PUBLIC "-//W3C//DTD SVG 1.1//EN"
  "http://www.w3.org/Graphics/SVG/1.1/DTD/svg11.dtd">
<svg xmlns="http://www.w3.org/2000/svg" version="1.1"
     width="880px" height="292px" viewBox="-15 -156 880 302">
  <defs>
    <style type="text/css"><![CDATA[
      .markmap-node {
        cursor: pointer;
      }

      .markmap-node-circle {
        fill: #fff;
        stroke-width: 1.5px;
      }

      .markmap-node-text {
        fill:  #000;
        font: 10px sans-serif;
      }

      .markmap-link {
        fill: none;
      }
    ]]></style>
  </defs>
  <g><path class="markmap-link" stroke="#aec7e8" stroke-width="1.5" d="M565.060546875,111.25C595.060546875,111.25 595.060546875,103.75 625.060546875,103.75"></path><path class="markmap-link" stroke="#aec7e8" stroke-width="1.5" d="M565.060546875,111.25C595.060546875,111.25 595.060546875,118.75 625.060546875,118.75"></path><path class="markmap-link" stroke="#aec7e8" stroke-width="1.5" d="M369.9794921875,111.25C399.9794921875,111.25 399.9794921875,111.25 429.9794921875,111.25"></path><path class="markmap-link" stroke="#aec7e8" stroke-width="1.5" d="M203.4921875,111.25C233.4921875,111.25 233.4921875,111.25 263.4921875,111.25"></path><path class="markmap-link" stroke="#ff7f0e" stroke-width="1.5" d="M588.7861328125,83.75C618.7861328125,83.75 618.7861328125,83.75 648.7861328125,83.75"></path><path class="markmap-link" stroke="#ff7f0e" stroke-width="1.5" d="M656.017578125,63.75C686.017578125,63.75 686.017578125,63.75 716.017578125,63.75"></path><path class="markmap-link" stroke="#ff7f0e" stroke-width="1.5" d="M622.130859375,43.75C652.130859375,43.75 652.130859375,43.75 682.130859375,43.75"></path><path class="markmap-link" stroke="#ff7f0e" stroke-width="1.5" d="M642.12109375,23.75C672.12109375,23.75 672.12109375,23.75 702.12109375,23.75"></path><path class="markmap-link" stroke="#ff7f0e" stroke-width="1.5" d="M617.6826171875,3.75C647.6826171875,3.75 647.6826171875,3.75 677.6826171875,3.75"></path><path class="markmap-link" stroke="#ff7f0e" stroke-width="1.5" d="M633.244140625,-16.25C663.244140625,-16.25 663.244140625,-16.25 693.244140625,-16.25"></path><path class="markmap-link" stroke="#ff7f0e" stroke-width="1.5" d="M660.4658203125,-36.25C690.4658203125,-36.25 690.4658203125,-36.25 720.4658203125,-36.25"></path><path class="markmap-link" stroke="#ff7f0e" stroke-width="1.5" d="M408.373046875,23.75C438.373046875,23.75 438.373046875,-36.25 468.373046875,-36.25"></path><path class="markmap-link" stroke="#ff7f0e" stroke-width="1.5" d="M408.373046875,23.75C438.373046875,23.75 438.373046875,-16.25 468.373046875,-16.25"></path><path class="markmap-link" stroke="#ff7f0e" stroke-width="1.5" d="M408.373046875,23.75C438.373046875,23.75 438.373046875,3.75 468.373046875,3.75"></path><path class="markmap-link" stroke="#ff7f0e" stroke-width="1.5" d="M408.373046875,23.75C438.373046875,23.75 438.373046875,23.75 468.373046875,23.75"></path><path class="markmap-link" stroke="#ff7f0e" stroke-width="1.5" d="M408.373046875,23.75C438.373046875,23.75 438.373046875,43.75 468.373046875,43.75"></path><path class="markmap-link" stroke="#ff7f0e" stroke-width="1.5" d="M408.373046875,23.75C438.373046875,23.75 438.373046875,63.75 468.373046875,63.75"></path><path class="markmap-link" stroke="#ff7f0e" stroke-width="1.5" d="M408.373046875,23.75C438.373046875,23.75 438.373046875,83.75 468.373046875,83.75"></path><path class="markmap-link" stroke="#ff7f0e" stroke-width="1.5" d="M619.328125,-56.25C649.328125,-56.25 649.328125,-56.25 679.328125,-56.25"></path><path class="markmap-link" stroke="#ff7f0e" stroke-width="1.5" d="M592.345703125,-76.25C622.345703125,-76.25 622.345703125,-76.25 652.345703125,-76.25"></path><path class="markmap-link" stroke="#ff7f0e" stroke-width="1.5" d="M385.580078125,-66.25C415.580078125,-66.25 415.580078125,-76.25 445.580078125,-76.25"></path><path class="markmap-link" stroke="#ff7f0e" stroke-width="1.5" d="M385.580078125,-66.25C415.580078125,-66.25 415.580078125,-56.25 445.580078125,-56.25"></path><path class="markmap-link" stroke="#ff7f0e" stroke-width="1.5" d="M537.4384765625,-103.75C567.4384765625,-103.75 567.4384765625,-111.25 597.4384765625,-111.25"></path><path class="markmap-link" stroke="#ff7f0e" stroke-width="1.5" d="M537.4384765625,-103.75C567.4384765625,-103.75 567.4384765625,-96.25 597.4384765625,-96.25"></path><path class="markmap-link" stroke="#ff7f0e" stroke-width="1.5" d="M378.3486328125,-103.75C408.3486328125,-103.75 408.3486328125,-103.75 438.3486328125,-103.75"></path><path class="markmap-link" stroke="#ff7f0e" stroke-width="1.5" d="M219.078125,-40C249.078125,-40 249.078125,-103.75 279.078125,-103.75"></path><path class="markmap-link" stroke="#ff7f0e" stroke-width="1.5" d="M219.078125,-40C249.078125,-40 249.078125,-66.25 279.078125,-66.25"></path><path class="markmap-link" stroke="#ff7f0e" stroke-width="1.5" d="M219.078125,-40C249.078125,-40 249.078125,23.75 279.078125,23.75"></path><path class="markmap-link" stroke="#ffbb78" stroke-width="1.5" d="M432.796875,-131.25C462.796875,-131.25 462.796875,-131.25 492.796875,-131.25"></path><path class="markmap-link" stroke="#ffbb78" stroke-width="1.5" d="M205.1767578125,-131.25C235.1767578125,-131.25 235.1767578125,-131.25 265.1767578125,-131.25"></path><path class="markmap-link" stroke="#ffbb78" stroke-width="2" d="M107.6005859375,0C137.6005859375,0 137.6005859375,-131.25 167.6005859375,-131.25"></path><path class="markmap-link" stroke="#ff7f0e" stroke-width="2" d="M107.6005859375,0C137.6005859375,0 137.6005859375,-40 167.6005859375,-40"></path><path class="markmap-link" stroke="#aec7e8" stroke-width="2" d="M107.6005859375,0C137.6005859375,0 137.6005859375,111.25 167.6005859375,111.25"></path><path class="markmap-link" stroke="#1f77b4" stroke-width="2" d="M107.6005859375,0C137.6005859375,0 137.6005859375,131.25 167.6005859375,131.25"></path><g class="markmap-node" transform="translate(167.6005859375,131.25)"><rect class="markmap-node-rect" y="-1" x="-1" width="39.0146484375" height="2" fill="#1f77b4"></rect><circle class="markmap-node-circle" cx="37.0146484375" stroke="#1f77b4" r="4.5" style="display: none;"></circle><text class="markmap-node-text" x="10" dy="-5" text-anchor="start" style="fill-opacity: 1;">Scale</text></g><g class="markmap-node" transform="translate(625.060546875,118.75)"><rect class="markmap-node-rect" y="-0.75" x="-1" width="67.349609375" height="1.5" fill="#aec7e8"></rect><circle class="markmap-node-circle" cx="65.349609375" stroke="#aec7e8" r="4.5" style="display: none;"></circle><text class="markmap-node-text" x="10" dy="-5" text-anchor="start" style="fill-opacity: 1;">IS portal (P)</text></g><g class="markmap-node" transform="translate(625.060546875,103.75)"><rect class="markmap-node-rect" y="-0.75" x="-1" width="79.009765625" height="1.5" fill="#aec7e8"></rect><circle class="markmap-node-circle" cx="77.009765625" stroke="#aec7e8" r="4.5" style="display: none;"></circle><text class="markmap-node-text" x="10" dy="-5" text-anchor="start" style="fill-opacity: 1;">Gig market (P)</text></g><g class="markmap-node" transform="translate(429.9794921875,111.25)"><rect class="markmap-node-rect" y="-0.75" x="-1" width="137.0810546875" height="1.5" fill="#aec7e8"></rect><circle class="markmap-node-circle" cx="135.0810546875" stroke="#aec7e8" r="4.5"></circle><text class="markmap-node-text" x="10" dy="-5" text-anchor="start" style="fill-opacity: 1;">Can't find matching projects</text></g><g class="markmap-node" transform="translate(263.4921875,111.25)"><rect class="markmap-node-rect" y="-0.75" x="-1" width="108.4873046875" height="1.5" fill="#aec7e8"></rect><circle class="markmap-node-circle" cx="106.4873046875" stroke="#aec7e8" r="4.5"></circle><text class="markmap-node-text" x="10" dy="-5" text-anchor="start" style="fill-opacity: 1;">Discovery challenges</text></g><g class="markmap-node" transform="translate(167.6005859375,111.25)"><rect class="markmap-node-rect" y="-1" x="-1" width="37.8916015625" height="2" fill="#aec7e8"></rect><circle class="markmap-node-circle" cx="35.8916015625" stroke="#aec7e8" r="4.5"></circle><text class="markmap-node-text" x="10" dy="-5" text-anchor="start" style="fill-opacity: 1;">Grow</text></g><g class="markmap-node" transform="translate(648.7861328125,83.75)"><rect class="markmap-node-rect" y="-0.75" x="-1" width="115.6943359375" height="1.5" fill="#ff7f0e"></rect><circle class="markmap-node-circle" cx="113.6943359375" stroke="#ff7f0e" r="4.5" style="display: none;"></circle><text class="markmap-node-text" x="10" dy="-5" text-anchor="start" style="fill-opacity: 1;">start as experiment (D)</text></g><g class="markmap-node" transform="translate(468.373046875,83.75)"><rect class="markmap-node-rect" y="-0.75" x="-1" width="122.4130859375" height="1.5" fill="#ff7f0e"></rect><circle class="markmap-node-circle" cx="120.4130859375" stroke="#ff7f0e" r="4.5"></circle><text class="markmap-node-text" x="10" dy="-5" text-anchor="start" style="fill-opacity: 1;">hesitant due to unknown</text></g><g class="markmap-node" transform="translate(716.017578125,63.75)"><rect class="markmap-node-rect" y="-0.75" x="-1" width="91.2509765625" height="1.5" fill="#ff7f0e"></rect><circle class="markmap-node-circle" cx="89.2509765625" stroke="#ff7f0e" r="4.5" style="display: none;"></circle><text class="markmap-node-text" x="10" dy="-5" text-anchor="start" style="fill-opacity: 1;">modular code (R)</text></g><g class="markmap-node" transform="translate(468.373046875,63.75)"><rect class="markmap-node-rect" y="-0.75" x="-1" width="189.64453125" height="1.5" fill="#ff7f0e"></rect><circle class="markmap-node-circle" cx="187.64453125" stroke="#ff7f0e" r="4.5"></circle><text class="markmap-node-text" x="10" dy="-5" text-anchor="start" style="fill-opacity: 1;">not willing to invest in reusable modul…</text></g><g class="markmap-node" transform="translate(682.130859375,43.75)"><rect class="markmap-node-rect" y="-0.75" x="-1" width="107.349609375" height="1.5" fill="#ff7f0e"></rect><circle class="markmap-node-circle" cx="105.349609375" stroke="#ff7f0e" r="4.5" style="display: none;"></circle><text class="markmap-node-text" x="10" dy="-5" text-anchor="start" style="fill-opacity: 1;">trusted committer (P)</text></g><g class="markmap-node" transform="translate(468.373046875,43.75)"><rect class="markmap-node-rect" y="-0.75" x="-1" width="155.7578125" height="1.5" fill="#ff7f0e"></rect><circle class="markmap-node-circle" cx="153.7578125" stroke="#ff7f0e" r="4.5"></circle><text class="markmap-node-text" x="10" dy="-5" text-anchor="start" style="fill-opacity: 1;">not enough maintainers to scale</text></g><g class="markmap-node" transform="translate(702.12109375,23.75)"><rect class="markmap-node-rect" y="-0.75" x="-1" width="109.576171875" height="1.5" fill="#ff7f0e"></rect><circle class="markmap-node-circle" cx="107.576171875" stroke="#ff7f0e" r="4.5" style="display: none;"></circle><text class="markmap-node-text" x="10" dy="-5" text-anchor="start" style="fill-opacity: 1;">Service vs Library (P)</text></g><g class="markmap-node" transform="translate(468.373046875,23.75)"><rect class="markmap-node-rect" y="-0.75" x="-1" width="175.748046875" height="1.5" fill="#ff7f0e"></rect><circle class="markmap-node-circle" cx="173.748046875" stroke="#ff7f0e" r="4.5"></circle><text class="markmap-node-text" x="10" dy="-5" text-anchor="start" style="fill-opacity: 1;">Fear of shared support responsibility</text></g><g class="markmap-node" transform="translate(677.6826171875,3.75)"><rect class="markmap-node-rect" y="-0.75" x="-1" width="107.90625" height="1.5" fill="#ff7f0e"></rect><circle class="markmap-node-circle" cx="105.90625" stroke="#ff7f0e" r="4.5" style="display: none;"></circle><text class="markmap-node-text" x="10" dy="-5" text-anchor="start" style="fill-opacity: 1;">review committee (P)</text></g><g class="markmap-node" transform="translate(468.373046875,3.75)"><rect class="markmap-node-rect" y="-0.75" x="-1" width="151.3095703125" height="1.5" fill="#ff7f0e"></rect><circle class="markmap-node-circle" cx="149.3095703125" stroke="#ff7f0e" r="4.5"></circle><text class="markmap-node-text" x="10" dy="-5" text-anchor="start" style="fill-opacity: 1;">radical change of management</text></g><g class="markmap-node" transform="translate(693.244140625,-16.25)"><rect class="markmap-node-rect" y="-0.75" x="-1" width="101.255859375" height="1.5" fill="#ff7f0e"></rect><circle class="markmap-node-circle" cx="99.255859375" stroke="#ff7f0e" r="4.5" style="display: none;"></circle><text class="markmap-node-text" x="10" dy="-5" text-anchor="start" style="fill-opacity: 1;">30 day warranty (P)</text></g><g class="markmap-node" transform="translate(468.373046875,-16.25)"><rect class="markmap-node-rect" y="-0.75" x="-1" width="166.87109375" height="1.5" fill="#ff7f0e"></rect><circle class="markmap-node-circle" cx="164.87109375" stroke="#ff7f0e" r="4.5"></circle><text class="markmap-node-text" x="10" dy="-5" text-anchor="start" style="fill-opacity: 1;">Rejection of accepting contribution</text></g><g class="markmap-node" transform="translate(720.4658203125,-36.25)"><rect class="markmap-node-rect" y="-0.75" x="-1" width="131.2705078125" height="1.5" fill="#ff7f0e"></rect><circle class="markmap-node-circle" cx="129.2705078125" stroke="#ff7f0e" r="4.5" style="display: none;"></circle><text class="markmap-node-text" x="10" dy="-5" text-anchor="start" style="fill-opacity: 1;">Contracted Contributor (P)</text></g><g class="markmap-node" transform="translate(468.373046875,-36.25)"><rect class="markmap-node-rect" y="-0.75" x="-1" width="194.0927734375" height="1.5" fill="#ff7f0e"></rect><circle class="markmap-node-circle" cx="192.0927734375" stroke="#ff7f0e" r="4.5"></circle><text class="markmap-node-text" x="10" dy="-5" text-anchor="start" style="fill-opacity: 1;">Discouragement of contributing resource</text></g><g class="markmap-node" transform="translate(279.078125,23.75)"><rect class="markmap-node-rect" y="-0.75" x="-1" width="131.294921875" height="1.5" fill="#ff7f0e"></rect><circle class="markmap-node-circle" cx="129.294921875" stroke="#ff7f0e" r="4.5"></circle><text class="markmap-node-text" x="10" dy="-5" text-anchor="start" style="fill-opacity: 1;">Organizational Challenges</text></g><g class="markmap-node" transform="translate(679.328125,-56.25)"><rect class="markmap-node-rect" y="-0.75" x="-1" width="109.576171875" height="1.5" fill="#ff7f0e"></rect><circle class="markmap-node-circle" cx="107.576171875" stroke="#ff7f0e" r="4.5" style="display: none;"></circle><text class="markmap-node-text" x="10" dy="-5" text-anchor="start" style="fill-opacity: 1;">Service vs Library (P)</text></g><g class="markmap-node" transform="translate(445.580078125,-56.25)"><rect class="markmap-node-rect" y="-0.75" x="-1" width="175.748046875" height="1.5" fill="#ff7f0e"></rect><circle class="markmap-node-circle" cx="173.748046875" stroke="#ff7f0e" r="4.5"></circle><text class="markmap-node-text" x="10" dy="-5" text-anchor="start" style="fill-opacity: 1;">Fear of shared support responsibility</text></g><g class="markmap-node" transform="translate(652.345703125,-76.25)"><rect class="markmap-node-rect" y="-0.75" x="-1" width="135.7041015625" height="1.5" fill="#ff7f0e"></rect><circle class="markmap-node-circle" cx="133.7041015625" stroke="#ff7f0e" r="4.5" style="display: none;"></circle><text class="markmap-node-text" x="10" dy="-5" text-anchor="start" style="fill-opacity: 1;">Common Requirements (P)</text></g><g class="markmap-node" transform="translate(445.580078125,-76.25)"><rect class="markmap-node-rect" y="-0.75" x="-1" width="148.765625" height="1.5" fill="#ff7f0e"></rect><circle class="markmap-node-circle" cx="146.765625" stroke="#ff7f0e" r="4.5"></circle><text class="markmap-node-text" x="10" dy="-5" text-anchor="start" style="fill-opacity: 1;">Not meeting everyone's needs</text></g><g class="markmap-node" transform="translate(279.078125,-66.25)"><rect class="markmap-node-rect" y="-0.75" x="-1" width="108.501953125" height="1.5" fill="#ff7f0e"></rect><circle class="markmap-node-circle" cx="106.501953125" stroke="#ff7f0e" r="4.5"></circle><text class="markmap-node-text" x="10" dy="-5" text-anchor="start" style="fill-opacity: 1;">Technical Challenges</text></g><g class="markmap-node" transform="translate(597.4384765625,-96.25)"><rect class="markmap-node-rect" y="-0.75" x="-1" width="107.349609375" height="1.5" fill="#ff7f0e"></rect><circle class="markmap-node-circle" cx="105.349609375" stroke="#ff7f0e" r="4.5" style="display: none;"></circle><text class="markmap-node-text" x="10" dy="-5" text-anchor="start" style="fill-opacity: 1;">trusted committer (P)</text></g><g class="markmap-node" transform="translate(597.4384765625,-111.25)"><rect class="markmap-node-rect" y="-0.75" x="-1" width="111.2607421875" height="1.5" fill="#ff7f0e"></rect><circle class="markmap-node-circle" cx="109.2607421875" stroke="#ff7f0e" r="4.5" style="display: none;"></circle><text class="markmap-node-text" x="10" dy="-5" text-anchor="start" style="fill-opacity: 1;">praise participants (P)</text></g><g class="markmap-node" transform="translate(438.3486328125,-103.75)"><rect class="markmap-node-rect" y="-0.75" x="-1" width="101.08984375" height="1.5" fill="#ff7f0e"></rect><circle class="markmap-node-circle" cx="99.08984375" stroke="#ff7f0e" r="4.5"></circle><text class="markmap-node-text" x="10" dy="-5" text-anchor="start" style="fill-opacity: 1;">Unrecognized effort</text></g><g class="markmap-node" transform="translate(279.078125,-103.75)"><rect class="markmap-node-rect" y="-0.75" x="-1" width="101.2705078125" height="1.5" fill="#ff7f0e"></rect><circle class="markmap-node-circle" cx="99.2705078125" stroke="#ff7f0e" r="4.5"></circle><text class="markmap-node-text" x="10" dy="-5" text-anchor="start" style="fill-opacity: 1;">Cultural Challenges</text></g><g class="markmap-node" transform="translate(167.6005859375,-40)"><rect class="markmap-node-rect" y="-1" x="-1" width="53.4775390625" height="2" fill="#ff7f0e"></rect><circle class="markmap-node-circle" cx="51.4775390625" stroke="#ff7f0e" r="4.5"></circle><text class="markmap-node-text" x="10" dy="-5" text-anchor="start" style="fill-opacity: 1;">Adoption</text></g><g class="markmap-node" transform="translate(492.796875,-131.25)"><rect class="markmap-node-rect" y="-0.75" x="-1" width="162.3984375" height="1.5" fill="#ffbb78"></rect><circle class="markmap-node-circle" cx="160.3984375" stroke="#ffbb78" r="4.5" style="display: none;"></circle><text class="markmap-node-text" x="10" dy="-5" text-anchor="start" style="fill-opacity: 1;">Dedicated Community Leader (P)</text></g><g class="markmap-node" transform="translate(265.1767578125,-131.25)"><rect class="markmap-node-rect" y="-0.75" x="-1" width="169.6201171875" height="1.5" fill="#ffbb78"></rect><circle class="markmap-node-circle" cx="167.6201171875" stroke="#ffbb78" r="4.5"></circle><text class="markmap-node-text" x="10" dy="-5" text-anchor="start" style="fill-opacity: 1;">Challenge: grow community impact</text></g><g class="markmap-node" transform="translate(167.6005859375,-131.25)"><rect class="markmap-node-rect" y="-1" x="-1" width="39.576171875" height="2" fill="#ffbb78"></rect><circle class="markmap-node-circle" cx="37.576171875" stroke="#ffbb78" r="4.5"></circle><text class="markmap-node-text" x="10" dy="-5" text-anchor="start" style="fill-opacity: 1;">Begin</text></g><g class="markmap-node" transform="translate(0,0)"><rect class="markmap-node-rect" y="-3" x="-1" width="109.6005859375" height="6" fill="#2ca02c"></rect><circle class="markmap-node-circle" cx="107.6005859375" stroke="#2ca02c" r="4.5"></circle><text class="markmap-node-text" x="10" dy="-5" text-anchor="start" style="fill-opacity: 1;">InnerSource Program</text></g></g>
</svg>