<?xml version="1.0" encoding="UTF-8" standalone="no"?>
<!-- Created with Inkscape (http://www.inkscape.org/) -->

<svg
   xmlns:dc="http://purl.org/dc/elements/1.1/"
   xmlns:cc="http://creativecommons.org/ns#"
   xmlns:rdf="http://www.w3.org/1999/02/22-rdf-syntax-ns#"
   xmlns:svg="http://www.w3.org/2000/svg"
   xmlns="http://www.w3.org/2000/svg"
   xmlns:sodipodi="http://sodipodi.sourceforge.net/DTD/sodipodi-0.dtd"
   xmlns:inkscape="http://www.inkscape.org/namespaces/inkscape"
   width="210mm"
   height="297mm"
   viewBox="0 0 210 297"
   version="1.1"
   id="svg8"
   inkscape:version="0.92.5 (2060ec1f9f, 2020-04-08)"
   sodipodi:docname="base_docs_drawing.svg"
   inkscape:export-filename="/home/isabel/projects/oss/InnerSourcePatterns/patterns/2-structured/project-setup/assets/base_docs_drawing.png"
   inkscape:export-xdpi="96"
   inkscape:export-ydpi="96">
  <defs
     id="defs2" />
  <sodipodi:namedview
     id="base"
     pagecolor="#ffffff"
     bordercolor="#666666"
     borderopacity="1.0"
     inkscape:pageopacity="0.0"
     inkscape:pageshadow="2"
     inkscape:zoom="0.7"
     inkscape:cx="186.68862"
     inkscape:cy="652.56569"
     inkscape:document-units="mm"
     inkscape:current-layer="layer1"
     showgrid="false"
     inkscape:window-width="924"
     inkscape:window-height="1016"
     inkscape:window-x="996"
     inkscape:window-y="27"
     inkscape:window-maximized="0" />
  <metadata
     id="metadata5">
    <rdf:RDF>
      <cc:Work
         rdf:about="">
        <dc:format>image/svg+xml</dc:format>
        <dc:type
           rdf:resource="http://purl.org/dc/dcmitype/StillImage" />
        <dc:title></dc:title>
      </cc:Work>
    </rdf:RDF>
  </metadata>
  <g
     inkscape:label="Layer 1"
     inkscape:groupmode="layer"
     id="layer1">
    <path
       style="stroke-width:0.2;stroke-miterlimit:4;stroke-dasharray:none;fill:#ff6600"
       id="path12"
       d="m 42.801215,49.160923 c 0.01975,-0.762899 -0.02925,-1.527363 0.04749,-2.287217 0.135788,-0.67057 0.180644,-1.359839 0.327666,-2.027102 0.122816,-0.566542 0.327622,-1.105244 0.504675,-1.655133 0.107964,-0.526264 0.33004,-1.015302 0.466574,-1.533104 0.217622,-0.538319 0.362309,-1.098706 0.570981,-1.639909 0.161132,-0.500174 0.427778,-0.953807 0.593184,-1.452724 0.128269,-0.478872 0.314082,-0.932444 0.408545,-1.420696 0.146398,-0.6286 0.426771,-1.215229 0.679521,-1.806665 0.217595,-0.575545 0.538665,-1.096962 0.837263,-1.631675 0.367776,-0.621379 0.827018,-1.176681 1.256377,-1.754211 0.54598,-0.671184 1.162151,-1.28774 1.814879,-1.854864 0.825097,-0.709795 1.79883,-1.200274 2.732525,-1.748168 0.294617,-0.172882 -1.188247,0.674441 -0.888279,0.511021 0.55249,-0.300992 1.097304,-0.615865 1.645955,-0.923798 0.597626,-0.36685 1.219076,-0.657196 1.906762,-0.799668 0.637628,-0.09097 1.284425,-0.07911 1.926933,-0.07931 0.767791,-0.01053 1.518224,0.19287 2.249449,0.406296 0.830132,0.273201 1.581555,0.667682 2.242116,1.239732 0.635883,0.488641 1.10342,1.134462 1.502297,1.821244 0.411943,0.720145 0.788895,1.461418 1.146737,2.20999 0.28812,0.667716 0.59578,1.325473 0.869897,1.999967 0.226409,0.598487 0.442714,1.200227 0.610732,1.818203 0.15298,0.628719 0.16306,1.278581 0.17562,1.921947 0.0027,0.707964 -0.02923,1.40776 0.105241,2.105096 0.126476,0.543767 0.208303,1.093857 0.249938,1.650207 0.03183,0.601228 0.200224,1.186063 0.2964,1.779762 0.07221,0.771604 0.07825,1.539793 0.205134,2.305402 0.147995,0.766616 0.21495,1.543748 0.252418,2.322478 -0.02389,0.682 0.136916,1.341786 0.250518,2.008637 0.0607,0.444611 0.01775,0.231923 0.123907,0.63904 0,0 -1.308323,0.70979 -1.308323,0.70979 v 0 c -0.113217,-0.422807 -0.06955,-0.205663 -0.128635,-0.651902 -0.1125,-0.672875 -0.287303,-1.337958 -0.256143,-2.025967 -0.03437,-0.773486 -0.09592,-1.545942 -0.2428,-2.307418 -0.130064,-0.765159 -0.145915,-1.530789 -0.212691,-2.302952 -0.09258,-0.598546 -0.262509,-1.186339 -0.305281,-1.789586 -0.03723,-0.55145 -0.110736,-1.097698 -0.236927,-1.636504 -0.139821,-0.705583 -0.117795,-1.411628 -0.1153,-2.12902 -0.01188,-0.631796 -0.02003,-1.269706 -0.16206,-1.888672 -0.159329,-0.614879 -0.382407,-1.207228 -0.598039,-1.803757 -0.272747,-0.671894 -0.579811,-1.327203 -0.861757,-1.994482 -0.354682,-0.745591 -0.731709,-1.482503 -1.142404,-2.19863 -0.390548,-0.672904 -0.853333,-1.29963 -1.473731,-1.780389 -0.651091,-0.552844 -1.396438,-0.92674 -2.210342,-1.184957 -0.724294,-0.208138 -1.468229,-0.39016 -2.227466,-0.370192 -0.637945,0.0028 -1.282274,-0.0074 -1.912007,0.109233 -0.672202,0.166738 -1.279499,0.47171 -1.874831,0.822481 1.666618,-0.998704 0.75967,-0.449135 -0.752949,0.417769 -0.297477,0.17049 0.58489,-0.358915 0.888311,-0.518586 0.839135,-0.441581 -1.91408,1.064625 -1.101049,0.781265 -0.661525,0.548809 -1.262053,1.172789 -1.825295,1.82142 -0.416754,0.580049 -0.881421,1.124485 -1.258067,1.733537 -0.286783,0.539009 -0.629732,1.045657 -0.844907,1.620549 -0.255823,0.579723 -0.517531,1.163188 -0.689606,1.773224 -0.08256,0.497869 -0.26251,0.953786 -0.395095,1.436683 -0.160093,0.506613 -0.423421,0.962514 -0.594827,1.462711 -0.208527,0.537822 -0.347643,1.093013 -0.578652,1.622875 -0.123248,0.526913 -0.356745,1.010761 -0.464118,1.541465 -0.165363,0.551281 -0.388353,1.081204 -0.508207,1.646738 -0.177549,0.654743 -0.182876,1.352029 -0.343237,2.013408 -0.09268,0.751345 -0.03421,1.510503 -0.04293,2.266352 0,0 -1.332092,0.678735 -1.332092,0.678735 z"
       inkscape:connector-curvature="0" />
    <path
       style="stroke-width:0.2;stroke-miterlimit:4;stroke-dasharray:none;fill:#ff6600"
       id="path24"
       d="m 58.973621,9.9361269 c 0.622756,-0.222825 1.196406,-0.550281 1.806529,-0.802472 0.491642,-0.220949 0.923447,-0.147805 1.423978,-0.02752 0.483415,0.05563 0.926653,0.196958 1.378218,0.369735 0.444185,0.152541 0.860634,0.383439 1.276734,0.6026651 0.434441,0.29928 0.83584,0.63443 1.186117,1.029495 0.342704,0.374941 0.619141,0.806028 0.847603,1.258674 0.291336,0.466508 0.484812,0.963629 0.593477,1.50106 0.09162,0.586368 -0.09211,1.171373 -0.184029,1.748344 -0.07828,0.569335 -0.228901,1.138165 -0.41929,1.680953 -0.171612,0.547097 -0.431586,1.050852 -0.727483,1.539035 -0.250227,0.459992 -0.575434,0.869236 -0.921099,1.25989 -0.353327,0.345871 -0.655299,0.73781 -0.996891,1.09384 -0.559108,0.597492 -1.22521,0.847337 -1.957722,1.294662 -0.356979,0.217996 0.724138,-0.418923 1.089117,-0.623242 0.06091,-0.0341 -0.11778,0.07496 -0.176669,0.112445 -0.833934,0.621818 -1.650464,0.914978 -2.586883,1.22719 -0.440553,0.238085 -0.885812,0.434877 -1.380851,0.518308 -0.42416,0.09398 -0.869615,0.0059 -1.284386,0.128844 -0.338025,0.132369 -0.686164,0.23082 -1.044602,0.285203 -0.33003,0.0302 -0.661765,0.03375 -0.992953,0.03369 -0.367781,0.04153 -0.685558,-0.150487 -1.030035,-0.24841 -0.397296,-0.179199 -0.748631,-0.439068 -1.132748,-0.640005 -0.342829,-0.273918 -0.673831,-0.567196 -0.99062,-0.870037 -0.376535,-0.261742 -0.629131,-0.645039 -0.873316,-1.024175 -0.225417,-0.324544 -0.472203,-0.61333 -0.626206,-0.982743 -0.115661,-0.374737 -0.294269,-0.721941 -0.402583,-1.100998 -0.08917,-0.377189 -0.100976,-0.764888 -0.110592,-1.150435 0.04731,-0.358732 0.2172,-0.680795 0.301456,-1.030806 0.162657,-0.339336 0.260195,-0.707543 0.416671,-1.048043 0.171423,-0.347058 0.413515,-0.649271 0.589909,-0.993029 0.190331,-0.245036 0.357877,-0.522561 0.590821,-0.730439 0.20776,-0.207954 0.390277,-0.440537 0.595399,-0.651689 0.244832,-0.270607 0.554094,-0.465158 0.840347,-0.686779 0.689051,-0.547288 3.107273,-1.727562 0.50993,-0.324014 -0.09444,0.05103 0.17595,-0.123092 0.265835,-0.181779 -0.249555,-0.877691 1.604072,-0.669518 2.078372,-1.002412 0.336649,-0.207308 0.735985,-0.204209 1.097504,-0.336642 0.477923,-0.118194 0.915626,-0.309425 1.362326,-0.510533 0.283472,-0.109368 0.581701,-0.114774 0.854253,-0.248412 0,0 -1.176378,0.925777 -1.176378,0.925777 v 0 c -0.281559,0.09169 -0.577976,0.128428 -0.849638,0.251772 -0.447002,0.199087 -0.899843,0.365797 -1.371942,0.496974 -0.37055,0.102678 -0.754628,0.155118 -1.091053,0.356824 -0.57208,0.167681 -1.743119,0.581215 0.495029,-0.4767 -0.847538,0.519637 -3.180804,1.815084 -0.661703,0.393998 0.04534,-0.02558 -0.08092,0.06553 -0.121379,0.09829 -0.281896,0.224684 -0.604604,0.407147 -0.841846,0.679193 -0.238024,0.172818 -0.406732,0.432543 -0.590676,0.658176 -0.262894,0.179458 -0.390798,0.451863 -0.620932,0.670405 -0.16807,0.352815 -0.40442,0.653685 -0.58547,0.999291 -0.204802,0.301027 -0.215752,0.705231 -0.436005,1.007242 -0.06419,0.349379 -0.215327,0.662392 -0.3171,1.00048 0.0053,0.373924 0.01404,0.750176 0.09269,1.117339 0.101136,0.376004 0.280701,0.716273 0.394989,1.085283 0.144495,0.363405 0.396487,0.637851 0.608834,0.96023 0.240896,0.369081 0.487151,0.736806 0.855071,0.992985 0.313664,0.289005 0.624797,0.586281 0.969742,0.837618 0.370974,0.207275 0.720991,0.452219 1.11732,0.613431 0.333312,0.104835 0.647377,0.25609 1.006799,0.210407 0.326757,-0.0036 0.655114,-0.004 0.978942,-0.05345 0.353793,-0.06569 0.691694,-0.186897 1.036014,-0.289132 0.425149,-0.06889 0.861645,-0.0309 1.285107,-0.124153 0.483963,-0.109504 0.917436,-0.33127 1.368076,-0.53307 0.584598,-0.19902 2.353568,-0.950263 0.01422,0.231872 0.815725,-0.530962 2.995282,-1.744566 0.538476,-0.327765 -0.309574,0.178526 0.804378,-0.46715 0.51908,-0.426136 0.355349,-0.344988 0.641242,-0.748132 1.0038,-1.088476 0.347974,-0.382121 0.683654,-0.779186 0.933566,-1.234403 0.289179,-0.484742 0.578223,-0.965666 0.737897,-1.51369 0.209216,-0.525357 0.345239,-1.098438 0.433898,-1.654 0.08317,-0.562923 0.273635,-1.130742 0.204555,-1.701019 C 66.070182,14.04451 65.884873,13.559504 65.59568,13.10568 65.374169,12.663853 65.101595,12.245179 64.766302,11.880976 64.429074,11.498505 64.035596,11.176679 63.61023,10.896109 63.199006,10.677578 62.781288,10.461889 62.340789,10.310316 61.89588,10.139882 61.447235,10.027993 60.97557,9.9564159 c -0.482485,-0.109086 -0.905044,-0.115608 -1.365889,0.1008551 -0.607381,0.258934 -1.189867,0.571944 -1.804934,0.813839 0,0 1.168876,-0.9349901 1.168876,-0.9349901 z"
       inkscape:connector-curvature="0" />
    <path
       style="stroke-width:0.2;stroke-miterlimit:4;stroke-dasharray:none;fill:#ff6600"
       id="path26"
       d="m 52.604634,17.557226 c 0.654057,-0.117475 1.301582,-0.199986 1.934788,-0.402457 0.419769,-0.163042 0.862876,-0.184404 1.253521,-0.411829 0.530582,-0.228892 0.466403,-0.207979 -0.964337,0.559937 -0.115721,0.06211 0.214088,-0.153008 0.328287,-0.217875 1.460669,-0.829688 0.942723,-0.63743 1.637646,-0.880344 0.3754,-0.202074 0.763604,-0.376834 1.15428,-0.546805 0.444457,-0.136542 0.833855,-0.392489 1.274751,-0.539503 0.37237,-0.22115 0.762403,-0.395912 1.145023,-0.595173 0.475937,-0.162237 0.920115,-0.39475 1.403847,-0.535719 0.563243,-0.192888 1.095517,-0.460951 1.659122,-0.650874 0.593935,-0.249055 1.180281,-0.512629 1.778478,-0.751503 0.5965,-0.199333 1.184579,-0.412094 1.762738,-0.659031 0.633117,-0.332767 1.297885,-0.614776 1.978777,-0.83481 0.69659,-0.227111 1.318392,-0.610789 2.017884,-0.827888 0.593188,-0.263219 1.195298,-0.5143531 1.816029,-0.7058441 0.556855,-0.262209 1.137253,-0.463865 1.709023,-0.689613 0.682871,-0.127383 2.371587,-1.108366 -0.01336,0.236967 0,0 1.396796,-0.54967 1.396796,-0.54967 v 0 c -0.882129,0.517286 -1.59612,0.970877 -2.554319,1.2336 -0.569074,0.2316921 -1.150303,0.4294331 -1.712294,0.6789201 -0.616318,0.206399 -1.214953,0.461259 -1.816243,0.70721 -0.687488,0.23881 -1.317426,0.61104 -2.014934,0.826747 -0.677066,0.235542 -1.336355,0.522781 -1.975485,0.847268 -0.57826,0.24648 -1.175347,0.440249 -1.765205,0.657033 -0.596678,0.241861 -1.182215,0.50996 -1.781394,0.745747 -0.558994,0.207249 -1.099176,0.462106 -1.666193,0.649583 -0.473158,0.159333 -0.926957,0.369948 -1.388451,0.558944 -0.379224,0.207007 -0.776614,0.375787 -1.158042,0.579001 -0.427113,0.170996 -0.831667,0.393779 -1.266384,0.546905 -0.387806,0.182021 -0.779845,0.353155 -1.163995,0.542552 -0.557058,0.22802 -0.247454,0.110686 0.93808,-0.586066 0.112631,-0.06619 -0.219382,0.142023 -0.331499,0.209087 -1.421407,0.850233 -0.940184,0.612747 -1.597538,0.929208 -0.402428,0.185208 -0.851256,0.220378 -1.262879,0.385292 -0.637947,0.191939 -1.298011,0.252236 -1.948182,0.393267 0,0 1.191667,-0.902264 1.191667,-0.902264 z"
       inkscape:connector-curvature="0" />
    <path
       style="stroke-width:0.2;stroke-miterlimit:4;stroke-dasharray:none;fill:#ff6600"
       id="path30"
       d="m 56.401737,26.742947 c 0.744003,0.172186 1.505306,0.239604 2.265765,0.285896 0.695622,0.05585 1.372534,0.05326 2.056582,-0.07865 0.626362,-0.140335 1.260997,-0.208293 1.900892,-0.240446 0.696603,0.03285 1.368922,-0.141279 2.048573,-0.263249 0.631889,-0.129596 1.285404,-0.05779 1.91411,-0.18836 0.651446,-0.190608 1.334426,-0.200575 1.993625,-0.341677 0.652973,-0.137978 1.28529,-0.343342 1.931003,-0.508654 0.693013,-0.08722 1.351373,-0.319582 2.032116,-0.463524 0.664634,-0.235682 1.356686,-0.355671 2.024319,-0.580202 0.618022,-0.177776 1.201428,-0.450702 1.788563,-0.708149 0.465719,-0.163174 0.897712,-0.394474 1.343392,-0.606011 0.312137,-0.117456 0.603475,-0.298448 0.906637,-0.447566 0.594726,-0.269098 0.877965,-0.615839 -1.041093,0.878404 -0.03989,0.01987 -0.158504,0.08143 -0.119673,0.05957 3.863538,-2.175234 -3.201824,1.870202 0.268779,-0.08246 -0.540244,0.370448 -1.082172,0.741455 -1.582166,1.165638 -0.441796,0.388956 -0.889653,0.770834 -1.338511,1.152141 -0.48872,0.384778 -0.990811,0.752541 -1.479918,1.13697 -0.506645,0.374118 -1.016346,0.745625 -1.512593,1.13383 -0.544243,0.380666 -1.047936,0.820586 -1.517185,1.290068 -0.393927,0.476311 -0.876112,0.853297 -1.360842,1.230196 -0.345326,0.267994 -0.584012,0.632603 -0.871408,0.953061 -0.184258,0.229407 -0.396869,0.430229 -0.59505,0.646298 -0.170961,0.263665 -0.372539,0.499454 -0.516104,0.780127 -0.162158,0.257206 -0.39007,0.459194 -0.588611,0.686043 -0.209653,0.184264 -0.42817,0.330734 -0.613222,0.540655 -0.03099,0.02566 -0.06198,0.05136 -0.09297,0.07703 0,0 -1.397559,0.553133 -1.397559,0.553133 v 0 c 0.03316,-0.02082 0.06633,-0.04162 0.09949,-0.06244 0.219779,-0.152878 0.338081,-0.433043 0.623506,-0.522327 0.188076,-0.233373 0.400076,-0.434951 0.601242,-0.652044 0.140811,-0.297447 0.33815,-0.537721 0.501242,-0.815793 0.191069,-0.232722 0.42517,-0.401838 0.591098,-0.660606 0.336328,-0.267539 0.518451,-0.710091 0.872887,-0.969695 0.485873,-0.374661 0.986239,-0.73157 1.374367,-1.213887 0.461053,-0.4781 0.959435,-0.931096 1.507699,-1.306013 0.490493,-0.395536 1.003157,-0.765291 1.512642,-1.133544 0.483222,-0.390879 0.987748,-0.755933 1.481063,-1.131723 0.44558,-0.38544 0.900848,-0.759352 1.339747,-1.150025 0.484058,-0.447349 1.043085,-0.801198 1.575469,-1.18763 0.517851,-0.306297 1.03482,-0.614087 1.553549,-0.918892 0.08105,-0.04763 0.326422,-0.186658 0.245753,-0.138379 -2.447391,1.464746 -0.02875,-0.04235 0.611981,-0.400223 -0.669729,0.548408 -0.765947,0.751022 -1.307703,1.000818 -0.300678,0.14944 -0.589894,0.323652 -0.904465,0.442701 -0.441981,0.20945 -0.879046,0.426347 -1.337929,0.596969 -0.585684,0.263774 -1.180394,0.511178 -1.796709,0.695116 -0.672086,0.212659 -1.36431,0.348083 -2.034249,0.56946 -0.675849,0.155922 -1.340236,0.357021 -2.026451,0.466738 -0.643761,0.174734 -1.281478,0.367303 -1.935988,0.500571 -0.665356,0.119546 -1.343118,0.16783 -1.999242,0.342175 -0.634005,0.09211 -1.282073,0.05776 -1.912735,0.188433 -0.68192,0.125865 -1.360848,0.268531 -2.058916,0.247984 -0.635838,0.03965 -1.265535,0.120803 -1.88899,0.254733 -0.689583,0.119639 -1.377308,0.09676 -2.074352,0.04652 -0.767981,-0.05205 -1.534336,-0.131347 -2.287805,-0.294585 0,0 1.22635,-0.854527 1.22635,-0.854527 z"
       inkscape:connector-curvature="0" />
    <path
       style="stroke-width:0.14202762;stroke-miterlimit:4;stroke-dasharray:none"
       id="path38"
       d="m 95.631841,19.830147 c -0.006,0.649402 -0.0198,1.291249 0.0494,1.928357 0.0714,0.46408 0.11012,0.937602 0.12704,1.420292 0.0172,0.556905 0.0133,1.115244 0.0145,1.672895 -0.0257,0.588974 0.0182,1.14713 0.0814,1.718694 0.0636,0.59819 0.0885,1.207264 0.10058,1.816839 0.009,0.704618 0.008,1.409584 0.007,2.114376 -0.0263,0.660173 0.0576,1.297607 0.11134,1.943102 0.0573,0.74652 0.0686,1.502273 0.0744,2.255991 0.005,0.853184 0.004,1.706432 0.004,2.559654 -1.3e-4,0.771173 -4e-4,1.542346 -5.6e-4,2.313519 5.6e-4,0.791623 -6.5e-4,1.58324 -0.001,2.374863 -4e-4,0.852723 0.001,1.705446 -10e-6,2.558169 -5.5e-4,0.861523 2.7e-4,1.723046 6.6e-4,2.584569 -0.0457,0.877146 -0.11628,1.747194 -0.15482,2.626111 -0.0321,0.878393 -0.0346,1.759596 -0.0367,2.639851 -0.001,0.870103 -2.6e-4,1.740207 -0.001,2.61031 0.0273,1.022538 -0.0586,2.032117 -0.11332,3.045048 -0.0559,1.112852 -0.0679,2.231592 -0.0752,3.349062 0.005,1.04446 -0.0261,2.09221 0.0182,3.13386 0.0737,1.09391 0.12021,2.19213 0.14735,3.29409 0.021,1.07797 0.0224,2.1568 0.0244,3.2354 0.009,0.96977 -0.0217,1.9427 0.0209,2.90968 0.0462,0.94441 0.14028,1.87183 0.23059,2.80207 0.061,1.03531 0.16683,2.05684 0.2356,3.08987 0.0699,1.11567 0.16558,2.22098 0.21785,3.34147 0.0893,1.09975 0.1557,2.2045 0.26374,3.29771 0.0723,0.96702 0.19014,1.91645 0.27597,2.87863 0.0785,0.82333 0.0631,1.66398 0.10963,2.49284 0.0885,0.90449 0.10036,1.82841 0.17021,2.736852 0.0795,0.81047 0.12827,1.62792 0.22187,2.43252 0.0869,0.71645 0.10827,1.449 0.20076,2.1622 0.0882,0.65091 0.10643,1.322319 0.19077,1.974519 0.0936,0.63948 0.12175,1.30214 0.13922,1.96382 0.0127,0.52671 0.0155,1.05416 0.0154,1.5814 8e-4,0.29984 -2.7e-4,0.59966 8e-4,0.8995 2.7e-4,0.0648 5.6e-4,0.12956 10e-4,0.19434 -0.0318,-0.16861 0.0728,-0.10004 0.13592,-0.10065 0.16914,0.15124 0.34373,0.25502 0.5259,0.32109 0.23265,0.0579 0.46778,0.0569 0.70188,0.0608 0.30142,0.002 0.602849,1.2e-4 0.904279,4e-5 0.36096,-0.0518 0.71048,0.13467 1.06508,0.23683 0.45706,0.11619 0.91874,0.12696 1.37883,0.14051 0.57195,-0.1084 1.14215,-0.23853 1.71591,-0.30591 0.55685,-0.058 1.11461,-0.0645 1.67208,-0.0697 0.58545,0.0213 1.16643,0.0121 1.7486,-0.11195 0.62029,-0.14669 1.2441,-0.20571 1.86815,-0.23966 0.65161,-0.14576 1.30304,-0.27197 1.9581,-0.33642 0.69487,-0.0579 1.39042,-0.0618 2.08577,-0.0647 0.74735,0.0558 1.49002,-0.12117 2.23398,-0.22986 0.86935,-0.10988 1.74071,-0.1233 2.61149,-0.13684 1.03018,-0.008 2.06038,-0.004 3.09056,-0.002 1.07561,-0.11098 2.1504,-0.23835 3.22695,-0.31048 1.03776,-0.16345 2.07571,-0.30322 3.11604,-0.38064 1.06262,-0.0634 2.12584,-0.0629 3.18884,-0.0655 1.05493,-0.002 2.10986,-10e-4 3.1648,2.1e-4 1.06153,0.002 2.12307,10e-4 3.18461,0.002 1.03077,-0.017 2.05947,-0.0206 3.08831,0.10963 1.04723,0.15571 2.09701,0.21126 3.14671,0.24556 1.08158,0.008 2.1639,0.0709 3.24475,-0.0213 1.1152,-0.12686 2.23029,-0.21843 3.34347,-0.40296 1.0233,-0.11739 2.04072,-0.36274 3.06232,-0.52135 0.8319,-0.12139 1.66608,-0.1546 2.4999,-0.17213 0.76087,-0.01 1.52177,-0.004 2.28265,-8e-4 0.90207,0.003 1.80414,0.004 2.70621,0.004 0.827,-0.0127 1.6506,0.1753 2.47549,0.27419 0.277,0.0394 0.54976,0.0673 0.82618,0.0201 0,0 -0.60108,0.87766 -0.60108,0.87766 v 0 c -0.27507,0.0228 -0.54751,-0.009 -0.82226,-0.0487 -0.82198,-0.10678 -1.64322,-0.28996 -2.46772,-0.27407 -0.90266,-8e-4 -1.80532,-8e-4 -2.70797,-10e-4 -0.762,7.9e-4 -1.52401,-0.001 -2.28599,0.008 -0.83037,0.0159 -1.66111,0.0464 -2.48953,0.16932 -1.02028,0.15957 -2.03683,0.39908 -3.05883,0.517 -1.11349,0.18136 -2.2292,0.26812 -3.34448,0.39702 -1.08184,0.0837 -2.16493,0.0292 -3.24733,0.0149 -1.05149,-0.0345 -2.10303,-0.0908 -3.15205,-0.24623 -1.0271,-0.12861 -2.05432,-0.11644 -3.08321,-0.1057 -1.06184,5.2e-4 -2.12368,-5.3e-4 -3.18552,-5.3e-4 -1.05424,-5.3e-4 -2.10848,-0.004 -3.16272,-0.003 -1.06346,0.004 -2.12714,0.007 -3.19018,0.0739 -1.03985,0.0778 -2.07706,0.22581 -3.11472,0.378 -1.07662,0.0714 -2.15119,0.20974 -3.22721,0.30485 -1.03192,1.2e-4 -2.06385,-0.001 -3.09575,0.0115 -0.87147,0.0146 -1.74359,0.0333 -2.61338,0.15149 -0.74534,0.11141 -1.48974,0.27741 -2.23855,0.22358 -0.69481,0.005 -1.3899,0.01 -2.08415,0.0712 -0.65586,0.0705 -1.30768,0.20974 -1.96113,0.33665 -0.62331,0.0376 -1.24621,0.10158 -1.8657,0.24987 -0.58415,0.11877 -1.16807,0.11264 -1.75494,0.10294 -0.55613,0.005 -1.11255,0.0128 -1.66796,0.0741 -0.57497,0.0735 -1.14626,0.21412 -1.72061,0.29893 -0.46366,-0.012 -0.92902,-0.0256 -1.38921,-0.14994 -0.35241,-0.10511 -0.70148,-0.27059 -1.060499,-0.21629 -0.30201,0.001 -0.60402,0.004 -0.90604,8e-4 -0.23794,-0.004 -0.47748,-0.004 -0.713,-0.0793 -0.17744,-0.0742 -0.34448,-0.20534 -0.51897,-0.29353 -0.086,0.002 -0.1444,0.0494 -0.20228,-0.098 8.1e-4,-0.0658 0.001,-0.13164 0.002,-0.19748 0.002,-0.30113 0.002,-0.60227 0.003,-0.90341 1.3e-4,-0.52637 0.002,-1.05291 -0.009,-1.57898 -0.0163,-0.65217 -0.042,-1.30579 -0.13317,-1.93671 -0.0836,-0.653 -0.10718,-1.32108 -0.19067,-1.974259 -0.093,-0.71536 -0.11533,-1.44802 -0.1993,-2.16793 -0.0946,-0.8086 -0.14424,-1.62873 -0.22239,-2.44417 -0.073,-0.90905 -0.0806,-1.835902 -0.17185,-2.741332 -0.0519,-0.82556 -0.0338,-1.66353 -0.10776,-2.48573 -0.0826,-0.96311 -0.20219,-1.9115 -0.2724,-2.87896 -0.10726,-1.09885 -0.17553,-2.20795 -0.2654,-3.31289 -0.0503,-1.11885 -0.14863,-2.2209 -0.21832,-3.3343 -0.0682,-1.03026 -0.17441,-2.04819 -0.23542,-3.08041 -0.0893,-0.93518 -0.18809,-1.86496 -0.23395,-2.81423 -0.0502,-0.97046 -0.0108,-1.94854 -0.023,-2.92289 -4e-5,-1.07714 -10e-4,-2.15463 -0.0212,-3.23118 -0.0252,-1.09989 -0.0709,-2.19633 -0.14723,-3.28735 -0.0491,-1.04609 -0.0155,-2.09914 -0.0203,-3.14867 0.008,-1.12112 0.0177,-2.24338 0.0713,-3.36039 0.0538,-1.007884 0.1415,-2.012094 0.11518,-3.029237 -0.001,-0.869627 -0.003,-1.73927 -0.001,-2.6089 0.003,-0.883767 0.007,-1.768078 0.034,-2.650474 0.0374,-0.875469 0.10499,-1.742371 0.15731,-2.614391 4e-4,-0.861943 10e-4,-1.723884 6.6e-4,-2.585825 -0.001,-0.85271 4e-4,-1.70542 -3e-5,-2.55813 -5.5e-4,-0.790948 -0.002,-1.581893 -9.6e-4,-2.372844 1.4e-4,-0.771488 5.6e-4,-1.542976 0.001,-2.314464 8.1e-4,-0.85258 0.003,-1.705215 -0.003,-2.557751 -0.008,-0.746238 -0.0161,-1.494817 -0.0718,-2.234389 -0.0538,-0.653319 -0.14564,-1.297222 -0.11619,-1.96543 1.1e-4,-0.702369 10e-4,-1.404898 -0.008,-2.107088 -0.0115,-0.601018 -0.0323,-1.202815 -0.0948,-1.792831 -0.0648,-0.580958 -0.11738,-1.147125 -0.0891,-1.746999 8.1e-4,-0.554422 5.6e-4,-1.109242 -0.0129,-1.663147 -0.0161,-0.475673 -0.0516,-0.943786 -0.12097,-1.401779 -0.0726,-0.64682 -0.0608,-1.294055 -0.0591,-1.954613 0,0 0.67177,-0.678735 0.67177,-0.678735 z"
       inkscape:connector-curvature="0" />
    <path
       style="stroke-width:0.2;stroke-miterlimit:4;stroke-dasharray:none"
       id="path40"
       d="m 96.166641,17.249945 c 1.82364,0.02894 3.64232,0.0096 5.462219,-0.107297 2.09653,-0.14741 4.19749,-0.207914 6.29845,-0.242691 1.93216,-0.09372 3.85764,-0.321409 5.79344,-0.293173 1.6691,0.07774 3.33702,0.171625 5.00733,0.220861 1.38592,0.03599 2.77235,0.03923 4.15863,0.04152 1.497,-0.01099 2.98785,-0.187864 4.4823,-0.275341 1.57737,-0.02394 3.1455,-0.147027 4.71683,-0.275697 1.71734,-0.123107 3.42278,-0.356559 5.14154,-0.468977 1.63957,-0.117399 3.28571,-0.05318 4.92466,-0.163336 1.44875,-0.201929 2.90337,-0.123644 4.35757,-0.05816 1.2472,0.06079 2.49564,0.08425 3.74409,0.09776 0.92887,0.0067 1.85778,0.0077 2.78665,0.002 0.21893,-0.002 0.43788,-0.003 0.65677,-0.0076 0.0769,1.41e-4 0.15423,9.26e-4 0.2313,7.14e-4 0.1437,-0.02372 0.17157,0.06094 0.19313,0.20131 0.0457,0.275305 -0.12017,0.491834 -0.25005,0.718553 -0.29874,0.496293 -0.58091,0.997089 -0.82693,1.522656 -0.31395,0.691997 -0.51055,1.420037 -0.72653,2.145062 -0.20772,0.753179 -0.40322,1.51004 -0.59232,2.268466 -0.13845,0.673978 -0.38654,1.31281 -0.51126,1.990664 -0.0848,0.549866 -0.10825,1.106278 -0.11574,1.661784 -0.0473,0.374554 -0.2163,0.714402 -0.30112,1.080057 -0.0529,0.260792 -0.0667,0.52648 -0.0715,0.791801 0.033,0.270297 -0.0935,0.479883 -0.21302,0.710257 -0.0557,0.126223 -0.20921,0.341757 -0.0784,0.456994 0.30018,0.05753 0.69839,-0.116509 1.01568,-0.170403 0.75855,-0.06981 1.49379,-0.262367 2.24786,-0.368842 0.80261,-0.15194 1.56385,-0.444813 2.3542,-0.641466 0.82531,-0.206952 1.65874,-0.384541 2.48538,-0.587408 0.90424,-0.187365 1.78035,-0.468227 2.69011,-0.630041 0.86961,-0.274684 1.77628,-0.365887 2.66501,-0.544471 0.89654,-0.153632 1.77086,-0.405806 2.65991,-0.594282 0.35554,-0.06855 0.7107,-0.143232 1.06997,-0.190213 0.60419,-0.003 -1.0989,0.648209 -1.21971,0.713407 l 1.32881,-0.70743 v 0 c -1.43847,0.990466 -0.81299,0.773579 -1.3167,0.896481 -0.3496,0.04908 -0.69686,0.113728 -1.04273,0.184149 -0.88669,0.193505 -1.76268,0.434114 -2.65774,0.588646 -0.89221,0.164627 -1.79008,0.294104 -2.66532,0.543211 -0.90561,0.172838 -1.78381,0.451541 -2.6868,0.637477 -0.82902,0.195204 -1.65808,0.38802 -2.48532,0.590269 -0.7879,0.208959 -1.5552,0.494478 -2.36258,0.628217 -0.75392,0.115248 -1.49434,0.29999 -2.25367,0.379413 -0.33878,0.06529 -0.80968,0.294854 -1.11335,0.05513 -0.15977,-0.192398 -0.12323,-0.40836 -0.005,-0.622306 0.11546,-0.215246 0.27082,-0.397048 0.24132,-0.646653 0.007,-0.273761 0.0145,-0.548483 0.0649,-0.818472 0.0653,-0.366754 0.22536,-0.697216 0.31635,-1.056761 0.0112,-0.563712 0.0332,-1.127751 0.11319,-1.686697 0.11478,-0.685583 0.36058,-1.325913 0.5105,-2.001358 0.18447,-0.761874 0.39053,-1.517942 0.589,-2.275869 0.22589,-0.725526 0.40214,-1.464353 0.71488,-2.161307 0.23636,-0.5318 0.51358,-1.036554 0.81061,-1.532973 0.11862,-0.192391 0.2936,-0.400498 0.28303,-0.626752 -0.004,-0.07239 0.0711,0.005 -0.0777,-0.01394 -0.0776,-2.08e-4 -0.15529,3.17e-4 -0.23269,0.0011 -0.21325,-0.003 -0.42652,-0.0039 -0.63979,-0.0055 -0.92353,-0.0054 -1.8471,-0.0057 -2.77061,-0.01571 -1.24733,-0.01441 -2.49454,-0.04351 -3.74049,-0.106385 -1.44974,-0.06394 -2.8988,-0.126714 -4.34323,0.06704 -1.63818,0.09554 -3.28209,0.04225 -4.91999,0.160763 -1.71817,0.11979 -3.4247,0.347192 -5.14212,0.472083 -1.57262,0.13082 -3.14295,0.24358 -4.72138,0.274925 -1.49839,0.09072 -2.99348,0.269734 -4.49513,0.273608 -1.38454,-0.0035 -2.76932,-0.0085 -4.15333,-0.05048 -1.66725,-0.05277 -3.33192,-0.152989 -4.99838,-0.223747 -1.93177,-0.01224 -3.85328,0.203271 -5.78196,0.289738 -2.10122,0.03733 -4.20243,0.09834 -6.29893,0.251379 -4.304099,-0.745683 -4.304099,-0.745683 -4.304099,-0.745683 z"
       inkscape:connector-curvature="0"
       sodipodi:nodetypes="ccccccccccccccccccccccccccccccccccccccccccccccccccccccccccccccccccccccc" />
    <path
       style="stroke-width:0.2;stroke-miterlimit:4;stroke-dasharray:none"
       id="path42"
       d="m 154.64237,14.708817 c 0.61668,0.374157 1.1454,0.853933 1.65862,1.356691 0.52057,0.431874 1.01638,0.889736 1.52095,1.33947 0.53324,0.389815 1.0375,0.814962 1.56791,1.210516 0.49373,0.387521 0.9678,0.797358 1.46847,1.175244 0.43163,0.35869 0.8163,0.76738 1.23496,1.139761 0.34988,0.387253 0.73576,0.733219 1.13524,1.068278 0.39602,0.322681 0.76856,0.67287 1.13482,1.02859 0.30035,0.263715 0.52261,0.589372 0.81816,0.85791 0.0745,0.06661 0.15251,0.128953 0.2364,0.183096 0,0 -1.27306,0.81235 -1.27306,0.81235 v 0 c -0.0829,-0.06571 -0.1638,-0.13387 -0.24058,-0.20672 -0.28737,-0.275502 -0.51465,-0.598645 -0.81121,-0.864947 -0.36679,-0.350509 -0.73633,-0.698631 -1.1303,-1.018855 -0.40234,-0.333985 -0.78023,-0.691707 -1.13728,-1.073634 -0.41116,-0.37468 -0.79834,-0.774527 -1.2266,-1.130766 -0.49592,-0.38304 -0.97387,-0.787249 -1.46599,-1.175409 -0.53052,-0.401333 -1.0438,-0.821818 -1.57477,-1.221596 -0.50254,-0.454795 -1.00776,-0.904341 -1.52229,-1.345911 -0.50529,-0.491717 -1.02184,-0.968273 -1.64388,-1.311329 0,0 1.25043,-0.822739 1.25043,-0.822739 z"
       inkscape:connector-curvature="0" />
    <path
       style="stroke-width:0.2;stroke-miterlimit:4;stroke-dasharray:none"
       id="path44"
       d="m 167.27894,25.107469 c -0.46532,0.59112 -0.70265,1.28199 -0.9458,1.981125 -0.23643,0.753681 -0.43306,1.520942 -0.62435,2.287725 -0.31573,0.820657 -0.43101,1.687747 -0.59512,2.545021 -0.18235,1.05283 -0.42999,2.092045 -0.6008,3.147036 -0.21526,1.010104 -0.38541,2.027913 -0.60153,3.037674 -0.17836,1.029198 -0.40496,2.049066 -0.55173,3.083735 -0.0876,1.1264 -0.20212,2.246315 -0.34171,3.367619 -0.14096,1.127257 -0.17721,2.26318 -0.20114,3.397758 -0.0752,1.189778 0.0922,2.368862 0.21113,3.549282 0.10417,1.102371 0.13663,2.209155 0.15136,3.315732 -0.041,1.139108 0.12194,2.267024 0.23094,3.397845 0.10537,1.168588 0.13007,2.341868 0.14704,3.514378 0.0124,1.07088 0.008,2.14187 0.009,3.2128 -0.003,1.05835 -8e-4,2.1167 -0.002,3.17505 0.002,0.98492 5.2e-4,1.96985 0.002,2.95477 8e-4,0.98499 -0.002,1.96997 -7.9e-4,2.95495 -5.3e-4,1.07368 -0.002,2.14735 -0.002,3.22102 10e-4,1.04137 5.3e-4,2.08273 10e-4,3.1241 0.0503,1.04092 -0.0402,2.06893 -0.16705,3.10025 -0.11471,0.85627 -0.16681,1.71833 -0.19344,2.58123 -0.015,0.66774 -0.0136,1.33572 -0.0139,2.0036 0.004,0.61695 0.002,1.23393 0.002,1.8509 -5.3e-4,0.73191 -7.9e-4,1.46383 -7.9e-4,2.19575 0.0275,0.69449 -0.16608,1.36887 -0.26748,2.050712 -0.0868,0.66548 -0.0979,1.33731 -0.1071,2.00737 -0.007,0.61417 -0.003,1.22837 -0.002,1.84256 -0.006,0.5581 -0.0275,1.1055 0.10195,1.6505 0.1294,0.414119 0.21259,0.838549 0.2533,1.269949 0.0304,0.36409 0.0287,0.7298 0.0319,1.09486 -1.8e-4,0.33225 -0.003,0.6645 -0.003,0.99676 -0.0324,0.26003 0.0634,0.45177 0.20778,0.65873 0.0151,0.0197 0.0302,0.0394 0.0454,0.059 0,0 -1.29553,0.76812 -1.29553,0.76812 v 0 c -0.0157,-0.0217 -0.0314,-0.0435 -0.0471,-0.0653 -0.15285,-0.22959 -0.28572,-0.45428 -0.24645,-0.74018 0.001,-0.33192 5.3e-4,-0.66384 0.002,-0.99576 0.002,-0.36168 0.002,-0.7238 -0.0224,-1.08485 -0.036,-0.42522 -0.11073,-0.84445 -0.23876,-1.25247 -0.13811,-0.556709 -0.12999,-1.110829 -0.11624,-1.682859 -0.001,-0.61501 -0.001,-1.23003 0.002,-1.84502 0.01,-0.67572 0.0224,-1.35305 0.0997,-2.02505 0.094,-0.6783 0.29931,-1.344802 0.28036,-2.033472 -1.5e-4,-0.73145 -2.6e-4,-1.46291 -0.002,-2.19437 -0.001,-0.61688 -0.004,-1.23376 -0.002,-1.85065 -0.001,-0.66999 -0.002,-1.34001 0.016,-2.00984 0.026,-0.86842 0.0773,-1.73614 0.19521,-2.5976 0.12992,-1.02606 0.22848,-2.04748 0.17528,-3.08391 5.3e-4,-1.04176 -1.6e-4,-2.08352 0.001,-3.12528 5.2e-4,-1.07312 -0.001,-2.14625 -0.002,-3.21937 0.001,-0.98472 -0.002,-1.96944 -8e-4,-2.95416 0.001,-0.98555 -1.4e-4,-1.97109 0.002,-2.95664 -7.9e-4,-1.05819 0.002,-2.11639 10e-4,-3.17458 0.003,-1.07093 0.003,-2.14187 -0.005,-3.21278 -0.0133,-1.16914 -0.0373,-2.33918 -0.13985,-3.50452 -0.10675,-1.134237 -0.28318,-2.264367 -0.23919,-3.406989 -0.0161,-1.102931 -0.0414,-2.206627 -0.14381,-3.305598 -0.11553,-1.186003 -0.29151,-2.369497 -0.21921,-3.564663 0.0204,-1.138988 0.0561,-2.279544 0.19464,-3.411376 0.13602,-1.122058 0.26336,-2.240885 0.3393,-3.368825 0.13866,-1.038456 0.36874,-2.059647 0.54335,-3.09186 0.21686,-1.00797 0.38831,-2.023714 0.60646,-3.031622 0.16953,-1.056125 0.416,-2.095916 0.59618,-3.149825 0.16652,-0.856629 0.25604,-1.731505 0.58541,-2.548613 0.18686,-0.771876 0.39415,-1.539876 0.61875,-2.30096 0.24649,-0.694585 0.43895,-1.413587 0.92453,-1.991968 0,0 1.36375,-0.616999 1.36375,-0.616999 z"
       inkscape:connector-curvature="0" />
    <text
       xml:space="preserve"
       style="font-style:normal;font-weight:normal;font-size:10.58333302px;line-height:1.25;font-family:sans-serif;letter-spacing:0px;word-spacing:0px;fill:#000000;fill-opacity:1;stroke:none;stroke-width:0.26458332"
       x="98.651779"
       y="28.636906"
       id="text68"><tspan
         sodipodi:role="line"
         x="98.651779"
         y="28.636906"
         style="font-size:4.23333311px;stroke-width:0.26458332"
         id="tspan70">Mission</tspan><tspan
         sodipodi:role="line"
         x="98.651779"
         y="41.866074"
         style="font-size:4.23333311px;stroke-width:0.26458332"
         id="tspan74">Getting started</tspan><tspan
         sodipodi:role="line"
         x="98.651779"
         y="55.095238"
         style="font-size:4.23333311px;stroke-width:0.26458332"
         id="tspan78">User Documentation</tspan><tspan
         sodipodi:role="line"
         x="98.651779"
         y="68.324402"
         style="font-size:4.23333311px;stroke-width:0.26458332"
         id="tspan82">Who we are</tspan><tspan
         sodipodi:role="line"
         x="98.651779"
         y="81.553566"
         style="font-size:4.23333311px;stroke-width:0.26458332"
         id="tspan102">Our communication channels</tspan><tspan
         sodipodi:role="line"
         x="98.651779"
         y="94.78273"
         style="font-size:4.23333311px;stroke-width:0.26458332"
         id="tspan88">Link to contribution guide</tspan></text>
    <text
       xml:space="preserve"
       style="font-style:normal;font-weight:normal;font-size:10.58333302px;line-height:1.25;font-family:sans-serif;letter-spacing:0px;word-spacing:0px;fill:#000000;fill-opacity:1;stroke:none;stroke-width:0.26458332"
       x="43.089287"
       y="56.607136"
       id="text110"><tspan
         sodipodi:role="line"
         id="tspan108"
         x="43.089287"
         y="56.607136"
         style="font-size:7.05555534px;stroke-width:0.26458332">For users</tspan></text>
    <text
       xml:space="preserve"
       style="font-style:normal;font-weight:normal;font-size:10.58333302px;line-height:1.25;font-family:sans-serif;letter-spacing:0px;word-spacing:0px;fill:#000000;fill-opacity:1;stroke:none;stroke-width:0.26458332"
       x="121.70834"
       y="15.029749"
       id="text114"><tspan
         sodipodi:role="line"
         id="tspan112"
         x="121.70834"
         y="15.029749"
         style="font-size:7.05555534px;fill:#ff6600;stroke-width:0.26458332">README.md</tspan></text>
    <path
       style="stroke-width:0.14202762;stroke-miterlimit:4;stroke-dasharray:none"
       id="path38-3"
       d="m 30.798649,169.39485 c -0.006,0.6494 -0.0198,1.29125 0.0494,1.92835 0.0714,0.46408 0.11012,0.93761 0.12704,1.4203 0.0172,0.5569 0.0133,1.11524 0.0145,1.67289 -0.0257,0.58898 0.0182,1.14713 0.0814,1.7187 0.0636,0.59819 0.0885,1.20726 0.10058,1.81683 0.009,0.70462 0.008,1.40959 0.007,2.11438 -0.0263,0.66017 0.0576,1.29761 0.11134,1.9431 0.0573,0.74652 0.0686,1.50228 0.0744,2.25599 0.005,0.85318 0.004,1.70643 0.004,2.55965 -1.3e-4,0.77118 -5.3e-4,1.54235 -5.3e-4,2.31352 5.3e-4,0.79162 -5.2e-4,1.58324 -10e-4,2.37487 -5.2e-4,0.85272 10e-4,1.70544 -10e-6,2.55816 -5.3e-4,0.86153 2.7e-4,1.72305 5.3e-4,2.58457 -0.0457,0.87715 -0.11628,1.7472 -0.15482,2.62611 -0.0321,0.8784 -0.0346,1.7596 -0.0367,2.63986 -10e-4,0.8701 -2.5e-4,1.7402 -10e-4,2.61031 0.0273,1.02253 -0.0586,2.03211 -0.11332,3.04504 -0.0559,1.11285 -0.0679,2.23159 -0.0752,3.34906 0.005,1.04447 -0.0261,2.09222 0.0182,3.13386 0.0737,1.09391 0.12021,2.19214 0.14735,3.2941 0.021,1.07796 0.0224,2.15679 0.0244,3.2354 0.009,0.96976 -0.0217,1.9427 0.0209,2.90967 0.0462,0.94442 0.14028,1.87184 0.23059,2.80208 0.061,1.03531 0.16683,2.05684 0.2356,3.08986 0.0699,1.11568 0.16558,2.22099 0.21785,3.34147 0.0893,1.09976 0.1557,2.2045 0.26374,3.29772 0.0723,0.96702 0.19014,1.91644 0.27597,2.87863 0.0785,0.82333 0.0631,1.66398 0.10963,2.49284 0.0885,0.90448 0.10036,1.8284 0.17021,2.73685 0.0795,0.81047 0.12827,1.62792 0.22187,2.43252 0.0869,0.71645 0.10827,1.449 0.20076,2.1622 0.0882,0.65091 0.10643,1.32232 0.19077,1.97452 0.0936,0.63948 0.12175,1.30214 0.13922,1.96382 0.0127,0.52671 0.0155,1.05416 0.0154,1.5814 7.9e-4,0.29984 -2.6e-4,0.59966 7.9e-4,0.8995 2.7e-4,0.0648 5.3e-4,0.12956 10e-4,0.19434 -0.0318,-0.16861 0.0728,-0.10004 0.13592,-0.10065 0.16914,0.15124 0.34373,0.25502 0.5259,0.32109 0.23266,0.0579 0.46779,0.0569 0.70188,0.0608 0.30142,0.002 0.60285,1.2e-4 0.90428,4e-5 0.36096,-0.0518 0.71048,0.13467 1.06508,0.23683 0.45706,0.11619 0.91874,0.12696 1.37883,0.14051 0.57195,-0.1084 1.14215,-0.23853 1.71591,-0.30591 0.55685,-0.058 1.11461,-0.0645 1.67208,-0.0697 0.58545,0.0213 1.16643,0.0121 1.7486,-0.11195 0.62029,-0.14669 1.2441,-0.20571 1.86815,-0.23966 0.65161,-0.14576 1.30304,-0.27197 1.9581,-0.33642 0.69487,-0.0579 1.39042,-0.0618 2.08577,-0.0647 0.74735,0.0558 1.49002,-0.12117 2.23398,-0.22986 0.86935,-0.10988 1.74071,-0.1233 2.61149,-0.13684 1.03018,-0.008 2.06038,-0.004 3.09056,-0.002 1.07561,-0.11098 2.1504,-0.23835 3.22695,-0.31048 1.03776,-0.16345 2.07571,-0.30322 3.11604,-0.38064 1.06262,-0.0634 2.12584,-0.0629 3.18884,-0.0655 1.05493,-0.002 2.10986,-0.001 3.1648,2.1e-4 1.06153,0.002 2.12307,0.001 3.18461,0.002 1.03077,-0.017 2.05948,-0.0206 3.08831,0.10963 1.04723,0.15571 2.09701,0.21126 3.14671,0.24556 1.08158,0.008 2.1639,0.0709 3.24475,-0.0213 1.1152,-0.12686 2.23029,-0.21843 3.34347,-0.40296 1.0233,-0.11739 2.04072,-0.36274 3.06232,-0.52135 0.8319,-0.12139 1.66608,-0.1546 2.4999,-0.17213 0.76087,-0.01 1.52177,-0.004 2.28265,-7.9e-4 0.90207,0.003 1.80414,0.004 2.70621,0.004 0.827,-0.0127 1.6506,0.1753 2.47549,0.27419 0.277,0.0394 0.54976,0.0673 0.82618,0.0201 0,0 -0.60108,0.87766 -0.60108,0.87766 v 0 c -0.27507,0.0228 -0.54751,-0.009 -0.82226,-0.0487 -0.82198,-0.10678 -1.64322,-0.28996 -2.46772,-0.27407 -0.90266,-8e-4 -1.80532,-8e-4 -2.70797,-0.001 -0.762,7.9e-4 -1.52401,-0.001 -2.28599,0.008 -0.83037,0.0159 -1.66111,0.0464 -2.48953,0.16932 -1.02028,0.15957 -2.03683,0.39908 -3.05883,0.517 -1.11349,0.18136 -2.2292,0.26812 -3.34448,0.39702 -1.08184,0.0837 -2.16493,0.0292 -3.24733,0.0149 -1.05149,-0.0345 -2.10303,-0.0908 -3.15205,-0.24624 -1.0271,-0.1286 -2.05432,-0.11644 -3.08321,-0.10569 -1.06184,5.2e-4 -2.12368,-5.3e-4 -3.18552,-5.3e-4 -1.05424,-5.3e-4 -2.10848,-0.004 -3.16272,-0.003 -1.06346,0.004 -2.12714,0.007 -3.19018,0.0739 -1.03985,0.0778 -2.07706,0.22581 -3.11472,0.378 -1.07662,0.0714 -2.15119,0.20974 -3.22721,0.30485 -1.03192,1.2e-4 -2.06385,-0.001 -3.09575,0.0115 -0.87147,0.0146 -1.74359,0.0333 -2.61338,0.15149 -0.74534,0.1114 -1.48974,0.27741 -2.23855,0.22357 -0.69481,0.005 -1.3899,0.01 -2.08415,0.0712 -0.65586,0.0705 -1.30768,0.20974 -1.96113,0.33665 -0.62331,0.0376 -1.24621,0.10158 -1.8657,0.24987 -0.58415,0.11877 -1.16807,0.11264 -1.75494,0.10294 -0.55613,0.005 -1.11255,0.0128 -1.66796,0.0741 -0.57497,0.0735 -1.14626,0.21413 -1.72061,0.29894 -0.46366,-0.012 -0.92902,-0.0256 -1.38921,-0.14995 -0.35241,-0.1051 -0.70148,-0.27059 -1.0605,-0.21629 -0.30201,10e-4 -0.60402,0.004 -0.90603,8e-4 -0.23795,-0.004 -0.47748,-0.004 -0.71301,-0.0793 -0.17744,-0.0742 -0.34448,-0.20534 -0.51897,-0.29353 -0.086,0.002 -0.1444,0.0494 -0.20228,-0.098 8e-4,-0.0658 10e-4,-0.13164 0.002,-0.19748 0.002,-0.30113 0.002,-0.60227 0.003,-0.90341 1.3e-4,-0.52637 0.002,-1.05291 -0.009,-1.57898 -0.0163,-0.65217 -0.042,-1.30579 -0.13317,-1.93671 -0.0836,-0.653 -0.10718,-1.32108 -0.19067,-1.97426 -0.093,-0.71536 -0.11533,-1.44802 -0.1993,-2.16793 -0.0946,-0.8086 -0.14424,-1.62873 -0.22239,-2.44417 -0.073,-0.90905 -0.0806,-1.8359 -0.17184,-2.74133 -0.0519,-0.82556 -0.0338,-1.66354 -0.10776,-2.48573 -0.0826,-0.96311 -0.2022,-1.9115 -0.27241,-2.87896 -0.10726,-1.09886 -0.17553,-2.20795 -0.26539,-3.31289 -0.0503,-1.11886 -0.14864,-2.2209 -0.21833,-3.3343 -0.0682,-1.03027 -0.17441,-2.04819 -0.23542,-3.08041 -0.0893,-0.93518 -0.18809,-1.86496 -0.23395,-2.81423 -0.0502,-0.97046 -0.0108,-1.94855 -0.023,-2.92289 -4e-5,-1.07714 -0.001,-2.15463 -0.0212,-3.23118 -0.0252,-1.0999 -0.0709,-2.19633 -0.14723,-3.28735 -0.0491,-1.04609 -0.0155,-2.09914 -0.0203,-3.14867 0.008,-1.12112 0.0177,-2.24338 0.0713,-3.36039 0.0538,-1.00789 0.14151,-2.0121 0.11518,-3.02924 -0.001,-0.86963 -0.003,-1.73927 -0.001,-2.6089 0.003,-0.88377 0.007,-1.76808 0.034,-2.65048 0.0374,-0.87547 0.105,-1.74237 0.15732,-2.61439 5.2e-4,-0.86194 0.001,-1.72388 5.2e-4,-2.58582 -0.001,-0.85271 5.3e-4,-1.70542 -3e-5,-2.55813 -5.3e-4,-0.79095 -0.002,-1.58189 -10e-4,-2.37285 1.4e-4,-0.77148 5.3e-4,-1.54297 10e-4,-2.31446 8e-4,-0.85258 0.003,-1.70522 -0.003,-2.55775 -0.008,-0.74624 -0.0161,-1.49481 -0.0718,-2.23438 -0.0538,-0.65332 -0.14564,-1.29723 -0.11619,-1.96543 1.1e-4,-0.70237 0.001,-1.4049 -0.008,-2.10709 -0.0115,-0.60102 -0.0323,-1.20282 -0.0948,-1.79283 -0.0648,-0.58096 -0.11738,-1.14713 -0.0891,-1.747 8e-4,-0.55442 5.3e-4,-1.10924 -0.0129,-1.66315 -0.0161,-0.47567 -0.0516,-0.94379 -0.12097,-1.40178 -0.0726,-0.64682 -0.0608,-1.29405 -0.0591,-1.95461 0,0 0.67178,-0.67874 0.67178,-0.67874 z"
       inkscape:connector-curvature="0" />
    <path
       style="stroke-width:0.2;stroke-miterlimit:4;stroke-dasharray:none"
       id="path40-5"
       d="m 31.333449,166.81465 c 1.82364,0.0289 3.64232,0.01 5.46222,-0.1073 2.09653,-0.14741 4.19749,-0.20792 6.29845,-0.24269 1.93216,-0.0937 3.85764,-0.32141 5.79344,-0.29318 1.6691,0.0777 3.33702,0.17163 5.00733,0.22087 1.38592,0.036 2.77235,0.0392 4.15863,0.0415 1.497,-0.011 2.98785,-0.18787 4.4823,-0.27535 1.57737,-0.0239 3.1455,-0.14702 4.71683,-0.27569 1.71734,-0.12311 3.42278,-0.35656 5.14154,-0.46898 1.63957,-0.1174 3.28571,-0.0532 4.92466,-0.16334 1.44875,-0.20192 2.90337,-0.12364 4.35757,-0.0582 1.2472,0.0608 2.49564,0.0842 3.74409,0.0978 0.92887,0.007 1.85778,0.008 2.78665,0.002 0.21893,-0.002 0.43788,-0.003 0.65677,-0.008 0.0769,1.5e-4 0.15423,9.3e-4 0.2313,7.2e-4 0.1437,-0.0237 0.17157,0.0609 0.19313,0.20131 0.0457,0.2753 -0.12017,0.49183 -0.25005,0.71855 -0.29874,0.49629 -0.58091,0.99709 -0.82693,1.52266 -0.31395,0.69199 -0.51055,1.42003 -0.72653,2.14506 -0.20772,0.75318 -0.40322,1.51004 -0.59232,2.26847 -0.13845,0.67397 -0.38654,1.31281 -0.51126,1.99066 -0.0848,0.54987 -0.10825,1.10628 -0.11574,1.66178 -0.0473,0.37456 -0.2163,0.71441 -0.30112,1.08006 -0.0529,0.26079 -0.0667,0.52648 -0.0715,0.7918 0.033,0.2703 -0.0935,0.47988 -0.21302,0.71026 -0.0557,0.12622 -0.20921,0.34176 -0.0784,0.45699 0.30018,0.0575 0.69839,-0.11651 1.01568,-0.1704 0.75855,-0.0698 1.49379,-0.26237 2.24786,-0.36884 0.80261,-0.15194 1.56385,-0.44482 2.3542,-0.64147 0.82531,-0.20695 1.65874,-0.38454 2.48538,-0.58741 0.90424,-0.18736 1.78035,-0.46822 2.69011,-0.63004 0.86961,-0.27468 1.77628,-0.36588 2.66501,-0.54447 0.89654,-0.15363 1.770861,-0.4058 2.659911,-0.59428 0.35554,-0.0685 0.7107,-0.14323 1.06997,-0.19021 0.60419,-0.003 -1.0989,0.64821 -1.21971,0.7134 l 1.32881,-0.70743 v 0 c -1.43847,0.99047 -0.81299,0.77358 -1.3167,0.89648 -0.3496,0.0491 -0.69686,0.11373 -1.04273,0.18415 -0.886691,0.19351 -1.762681,0.43412 -2.657741,0.58865 -0.89221,0.16463 -1.79008,0.2941 -2.66532,0.54321 -0.90561,0.17284 -1.78381,0.45154 -2.6868,0.63748 -0.82902,0.1952 -1.65808,0.38802 -2.48532,0.59027 -0.7879,0.20896 -1.5552,0.49447 -2.36258,0.62821 -0.75392,0.11525 -1.49434,0.29999 -2.25367,0.37942 -0.33878,0.0653 -0.80968,0.29485 -1.11335,0.0551 -0.15977,-0.1924 -0.12323,-0.40836 -0.005,-0.62231 0.11546,-0.21525 0.27082,-0.39705 0.24131,-0.64665 0.007,-0.27376 0.0145,-0.54849 0.0649,-0.81847 0.0653,-0.36676 0.22537,-0.69722 0.31636,-1.05677 0.0112,-0.56371 0.0332,-1.12775 0.11318,-1.68669 0.11479,-0.68559 0.36058,-1.32592 0.51051,-2.00136 0.18447,-0.76187 0.39053,-1.51794 0.58899,-2.27587 0.2259,-0.72553 0.40214,-1.46435 0.71489,-2.16131 0.23636,-0.5318 0.51358,-1.03655 0.8106,-1.53297 0.11862,-0.19239 0.2936,-0.4005 0.28303,-0.62675 -0.004,-0.0724 0.0711,0.005 -0.0777,-0.0139 -0.0776,-2.1e-4 -0.1553,3.2e-4 -0.23269,0.001 -0.21326,-0.003 -0.42653,-0.004 -0.6398,-0.005 -0.92352,-0.005 -1.84709,-0.006 -2.7706,-0.0157 -1.24733,-0.0144 -2.49455,-0.0435 -3.74049,-0.10639 -1.44974,-0.0639 -2.8988,-0.12671 -4.34323,0.067 -1.63818,0.0955 -3.28209,0.0422 -4.91999,0.16077 -1.71817,0.11979 -3.4247,0.34719 -5.14212,0.47208 -1.57262,0.13082 -3.14295,0.24358 -4.72138,0.27492 -1.49839,0.0907 -2.99348,0.26974 -4.49513,0.27361 -1.38454,-0.004 -2.76932,-0.008 -4.15333,-0.0505 -1.66725,-0.0528 -3.33192,-0.15299 -4.99838,-0.22374 -1.93177,-0.0122 -3.85328,0.20327 -5.78196,0.28973 -2.10122,0.0373 -4.20243,0.0983 -6.29893,0.25138 -4.30409,-0.74568 -4.30409,-0.74568 -4.30409,-0.74568 z"
       inkscape:connector-curvature="0"
       sodipodi:nodetypes="ccccccccccccccccccccccccccccccccccccccccccccccccccccccccccccccccccccccc" />
    <path
       style="stroke-width:0.2;stroke-miterlimit:4;stroke-dasharray:none"
       id="path42-6"
       d="m 89.809179,164.27352 c 0.61668,0.37415 1.1454,0.85393 1.65862,1.35669 0.52057,0.43187 1.01638,0.88973 1.52095,1.33947 0.53324,0.38981 1.0375,0.81496 1.56791,1.21051 0.49373,0.38753 0.9678,0.79736 1.46847,1.17525 0.43163,0.35869 0.8163,0.76738 1.23496,1.13976 0.34988,0.38725 0.73576,0.73322 1.13524,1.06828 0.39602,0.32268 0.76856,0.67287 1.13482,1.02859 0.30035,0.26371 0.522611,0.58937 0.818161,0.85791 0.0745,0.0666 0.15251,0.12895 0.2364,0.18309 0,0 -1.273061,0.81235 -1.273061,0.81235 v 0 c -0.0829,-0.0657 -0.1638,-0.13387 -0.24058,-0.20672 -0.28737,-0.2755 -0.51465,-0.59864 -0.81121,-0.86494 -0.36679,-0.35051 -0.73633,-0.69863 -1.1303,-1.01886 -0.40234,-0.33398 -0.78023,-0.69171 -1.13728,-1.07363 -0.41116,-0.37468 -0.79834,-0.77453 -1.2266,-1.13077 -0.49592,-0.38304 -0.97387,-0.78725 -1.46599,-1.17541 -0.53052,-0.40133 -1.0438,-0.82182 -1.57477,-1.22159 -0.50254,-0.4548 -1.00776,-0.90434 -1.52229,-1.34591 -0.50529,-0.49172 -1.02184,-0.96828 -1.64388,-1.31133 0,0 1.25043,-0.82274 1.25043,-0.82274 z"
       inkscape:connector-curvature="0" />
    <path
       style="stroke-width:0.2;stroke-miterlimit:4;stroke-dasharray:none"
       id="path44-2"
       d="m 102.44575,174.67217 c -0.46532,0.59112 -0.70265,1.28199 -0.9458,1.98112 -0.23643,0.75369 -0.43306,1.52095 -0.62435,2.28773 -0.31573,0.82066 -0.43101,1.68775 -0.59512,2.54502 -0.18235,1.05283 -0.429991,2.09205 -0.600801,3.14703 -0.21526,1.01011 -0.38541,2.02792 -0.60153,3.03768 -0.17836,1.02919 -0.40496,2.04906 -0.55173,3.08373 -0.0876,1.1264 -0.20212,2.24632 -0.34171,3.36762 -0.14096,1.12726 -0.17721,2.26318 -0.20114,3.39776 -0.0752,1.18978 0.0922,2.36886 0.21113,3.54928 0.10417,1.10237 0.13663,2.20916 0.15136,3.31573 -0.041,1.13911 0.12194,2.26703 0.23094,3.39785 0.10537,1.16859 0.13007,2.34186 0.14704,3.51437 0.0124,1.07089 0.008,2.14187 0.009,3.2128 -0.003,1.05835 -7.9e-4,2.11671 -0.002,3.17505 0.002,0.98492 5.3e-4,1.96985 0.002,2.95477 8e-4,0.98499 -0.002,1.96997 -7.9e-4,2.95495 -5.3e-4,1.07368 -0.002,2.14736 -0.002,3.22102 0.001,1.04137 5.3e-4,2.08274 0.001,3.12411 0.0503,1.04091 -0.0402,2.06892 -0.16705,3.10025 -0.11471,0.85626 -0.16681,1.71832 -0.19344,2.58123 -0.015,0.66774 -0.0136,1.33572 -0.0139,2.0036 0.004,0.61695 0.002,1.23393 0.002,1.8509 -5.3e-4,0.73191 -7.9e-4,1.46382 -7.9e-4,2.19574 0.0275,0.6945 -0.16609,1.36888 -0.26749,2.05072 -0.0868,0.66548 -0.0979,1.33731 -0.1071,2.00737 -0.007,0.61417 -0.003,1.22837 -0.002,1.84256 -0.006,0.5581 -0.0275,1.1055 0.10195,1.6505 0.1294,0.41412 0.21259,0.83855 0.2533,1.26995 0.0304,0.36409 0.0287,0.7298 0.0319,1.09486 -1.8e-4,0.33225 -0.003,0.6645 -0.003,0.99676 -0.0324,0.26003 0.0634,0.45177 0.20778,0.65873 0.0151,0.0197 0.0302,0.0394 0.0454,0.059 0,0 -1.29553,0.76812 -1.29553,0.76812 v 0 c -0.0157,-0.0217 -0.0314,-0.0435 -0.0471,-0.0653 -0.15285,-0.22959 -0.28572,-0.45428 -0.24645,-0.74018 10e-4,-0.33192 5.3e-4,-0.66384 0.002,-0.99576 0.002,-0.36168 0.002,-0.7238 -0.0224,-1.08485 -0.036,-0.42522 -0.11073,-0.84445 -0.23876,-1.25247 -0.13811,-0.55671 -0.12999,-1.11083 -0.11624,-1.68286 -0.001,-0.61501 -0.001,-1.23003 0.002,-1.84502 0.01,-0.67572 0.0224,-1.35305 0.0997,-2.02505 0.094,-0.6783 0.29931,-1.3448 0.28036,-2.03348 -1.5e-4,-0.73144 -2.6e-4,-1.46291 -0.002,-2.19437 -0.001,-0.61687 -0.004,-1.23376 -0.002,-1.85064 -10e-4,-0.67 -0.002,-1.34002 0.016,-2.00985 0.026,-0.86841 0.0773,-1.73614 0.19521,-2.5976 0.12992,-1.02605 0.22848,-2.04748 0.17528,-3.0839 5.3e-4,-1.04176 -1.6e-4,-2.08352 10e-4,-3.12528 5.3e-4,-1.07313 -10e-4,-2.14625 -0.002,-3.21937 0.001,-0.98473 -0.002,-1.96944 -7.9e-4,-2.95416 10e-4,-0.98555 -1.4e-4,-1.9711 0.002,-2.95664 -7.9e-4,-1.05819 0.002,-2.1164 0.001,-3.17459 0.003,-1.07093 0.003,-2.14186 -0.005,-3.21278 -0.0133,-1.16913 -0.0373,-2.33917 -0.13985,-3.50452 -0.10675,-1.13423 -0.28318,-2.26436 -0.23919,-3.40699 -0.0161,-1.10292 -0.0414,-2.20662 -0.14381,-3.30559 -0.11553,-1.18601 -0.29151,-2.3695 -0.21921,-3.56467 0.0204,-1.13898 0.0561,-2.27954 0.19464,-3.41137 0.13602,-1.12206 0.26336,-2.24089 0.3393,-3.36883 0.13866,-1.03845 0.36874,-2.05964 0.54335,-3.09186 0.21686,-1.00797 0.38831,-2.02371 0.60646,-3.03162 0.16953,-1.05612 0.416,-2.09591 0.59618,-3.14982 0.16652,-0.85663 0.25604,-1.7315 0.58541,-2.54861 0.18686,-0.77188 0.39415,-1.53988 0.618751,-2.30096 0.24649,-0.69459 0.43895,-1.41359 0.92453,-1.99197 0,0 1.36375,-0.617 1.36375,-0.617 z"
       inkscape:connector-curvature="0" />
    <text
       xml:space="preserve"
       style="font-style:normal;font-weight:normal;font-size:10.58333302px;line-height:1.25;font-family:sans-serif;letter-spacing:0px;word-spacing:0px;fill:#000000;fill-opacity:1;stroke:none;stroke-width:0.26458332"
       x="33.818584"
       y="178.20161"
       id="text68-9"><tspan
         sodipodi:role="line"
         x="33.818584"
         y="178.20161"
         style="font-size:4.23333311px;stroke-width:0.26458332"
         id="tspan88-3">Where's the code?</tspan><tspan
         sodipodi:role="line"
         x="33.818584"
         y="191.43079"
         style="font-size:4.23333311px;stroke-width:0.26458332"
         id="tspan237">How to make modifications?</tspan><tspan
         sodipodi:role="line"
         x="33.818584"
         y="204.65994"
         style="font-size:4.23333311px;stroke-width:0.26458332"
         id="tspan241">How to build?</tspan><tspan
         sodipodi:role="line"
         x="33.818584"
         y="217.88911"
         style="font-size:4.23333311px;stroke-width:0.26458332"
         id="tspan243">How to run tests?</tspan><tspan
         sodipodi:role="line"
         x="33.818584"
         y="231.11829"
         style="font-size:4.23333311px;stroke-width:0.26458332"
         id="tspan245">How to submit patches?</tspan><tspan
         sodipodi:role="line"
         x="33.818584"
         y="244.34744"
         style="font-size:4.23333311px;stroke-width:0.26458332"
         id="tspan247">Time to expect for reviews?</tspan></text>
    <text
       xml:space="preserve"
       style="font-style:normal;font-weight:normal;font-size:10.58333302px;line-height:1.25;font-family:sans-serif;letter-spacing:0px;word-spacing:0px;fill:#000000;fill-opacity:1;stroke:none;stroke-width:0.26458332"
       x="56.875164"
       y="164.59445"
       id="text114-6"><tspan
         sodipodi:role="line"
         id="tspan112-2"
         x="56.875164"
         y="164.59445"
         style="font-size:7.05555534px;fill:#ff6600;stroke-width:0.26458332">CONTRIBUTING.md</tspan></text>
    <path
       style="fill:#ff6600;stroke-width:0.2;stroke-miterlimit:4;stroke-dasharray:none"
       id="path185"
       d="m 142.20895,212.06866 c 0.0968,-0.67243 0.22997,-1.33773 0.30816,-2.01302 0.004,-0.54668 0.17251,-1.06358 0.29288,-1.59127 0.0634,-0.56558 0.24464,-1.10392 0.37359,-1.65552 0.0629,-0.47817 0.1612,-0.93401 0.31685,-1.38989 0.11367,-0.5093 0.2476,-1.0118 0.37629,-1.51784 0.10635,-0.57904 0.22097,-1.14957 0.37669,-1.71782 0.21812,-0.56004 0.38909,-1.13632 0.61945,-1.69134 0.21152,-0.56305 0.37259,-1.1445 0.6022,-1.70097 0.17861,-0.5314 0.48849,-1.00216 0.68802,-1.52324 0.11842,-0.55999 0.3931,-1.06072 0.6365,-1.57191 0.27821,-0.42056 0.48717,-0.87682 0.71531,-1.32459 0.17854,-0.42772 0.36418,-0.85287 0.59951,-1.25289 0.24954,-0.42785 0.51575,-0.84373 0.79498,-1.25261 0.26891,-0.40865 0.54246,-0.81356 0.82004,-1.21635 0.33181,-0.37933 0.60533,-0.80245 0.90407,-1.20651 0.30064,-0.46063 0.71716,-0.82459 1.12035,-1.19218 0.39222,-0.36073 0.7913,-0.72014 1.2438,-1.00356 0.73327,-0.508 1.53675,-0.90373 2.29483,-1.37014 0.32682,-0.20107 -0.66647,0.38092 -1.00691,0.55796 -0.0937,0.0487 0.17719,-0.11503 0.26578,-0.17254 4.31781,-2.44166 0.48702,-0.27469 0.53565,-0.30431 1.0462,-0.63726 1.41392,-0.78436 2.30326,-1.2218 0.55766,-0.19338 1.1069,-0.41744 1.67366,-0.58488 0.54442,-0.16552 1.05976,-0.39627 1.6213,-0.50548 0.52465,-0.0967 1.0609,-0.0972 1.59263,-0.10281 0.55909,-0.0502 1.08938,0.12843 1.63024,0.24221 0.58669,0.0921 1.13967,0.31705 1.6861,0.54025 0.53155,0.21613 1.03651,0.49169 1.55237,0.74196 0.50621,0.23018 0.9835,0.53476 1.41854,0.87987 0.44597,0.41609 0.89558,0.83637 1.26948,1.31952 0.39539,0.46036 0.80722,0.90548 1.14368,1.41247 0.37664,0.5199 0.77581,1.02698 1.13238,1.56105 0.40534,0.52083 0.66732,1.12918 1.01606,1.68402 0.33344,0.52381 0.64518,1.0592 0.96592,1.59081 0.26994,0.5023 0.51437,1.01725 0.78656,1.51826 0.25257,0.53892 0.50578,1.07706 0.75565,1.6172 0.20369,0.50893 0.38269,1.0298 0.55053,1.55282 0.26199,0.45961 0.40926,0.95737 0.57328,1.45497 0.25756,0.53345 0.27923,1.12772 0.41868,1.69172 0.177,0.56769 0.28203,1.15247 0.33787,1.74343 0.0447,0.54556 0.21736,1.07085 0.31351,1.60947 0.0811,0.51903 0.0981,1.04423 0.107,1.5685 0.026,0.41138 -0.0381,0.83009 0.0411,1.23584 0.11523,0.3388 0.2278,0.67714 0.29221,1.02947 0.0497,0.2469 0.0486,0.49874 0.051,0.74934 0.002,0.26531 -7.9e-4,0.53062 -0.001,0.79593 -0.003,0.32041 -5.3e-4,0.64083 -0.002,0.96124 0.0403,0.22821 -0.0713,0.51468 0.0307,0.72669 0.18712,0.26863 0.22079,0.51125 0.14234,0.82328 -0.0451,0.17051 -0.0941,0.33994 -0.14378,0.50915 -0.002,0.008 -0.004,0.0152 -0.007,0.0228 0,0 -1.36641,0.643 -1.36641,0.643 v 0 c 0.003,-0.007 0.005,-0.0148 0.008,-0.0223 0.0558,-0.1672 0.10782,-0.33564 0.1548,-0.50555 0.0784,-0.29161 0.10176,-0.46816 -0.0958,-0.72667 -0.12009,-0.23984 -0.0402,-0.52659 -0.0597,-0.78942 -0.001,-0.32023 0.002,-0.64046 -1.3e-4,-0.96069 0.001,-0.26498 0.002,-0.52996 0.002,-0.79494 -0.001,-0.24301 5e-5,-0.48725 -0.0388,-0.72787 -0.057,-0.35175 -0.16588,-0.6897 -0.2853,-1.0251 -0.10117,-0.41246 -0.0313,-0.84196 -0.0523,-1.26416 -0.008,-0.51726 -0.0187,-1.03574 -0.0947,-1.54847 -0.0928,-0.54384 -0.27004,-1.07234 -0.31807,-1.62083 -0.0516,-0.58407 -0.14711,-1.1633 -0.32637,-1.72319 -0.14394,-0.55897 -0.15814,-1.15077 -0.41372,-1.6811 -0.17135,-0.49512 -0.30806,-0.9987 -0.57497,-1.45688 -0.16472,-0.51798 -0.34685,-1.03068 -0.53957,-1.53766 -0.24927,-0.53713 -0.50139,-1.07221 -0.75336,-1.60808 -0.26822,-0.50073 -0.51593,-1.01134 -0.78247,-1.51295 -0.31642,-0.53311 -0.63061,-1.06583 -0.96221,-1.5896 -0.3454,-0.55523 -0.61073,-1.15961 -1.01353,-1.68012 -0.35808,-0.5332 -0.75663,-1.0405 -1.13248,-1.56127 -0.33676,-0.5018 -0.75098,-0.94106 -1.13936,-1.40226 -0.36984,-0.47057 -0.80871,-0.88602 -1.25142,-1.28748 -0.43465,-0.33218 -0.90228,-0.6281 -1.40131,-0.85438 -0.51132,-0.25273 -1.01801,-0.51757 -1.54613,-0.73399 -0.54131,-0.22095 -1.09323,-0.4244 -1.6734,-0.51705 -0.53299,-0.1162 -1.05944,-0.26767 -1.6112,-0.21462 -0.52657,0.009 -1.05701,0.0159 -1.57438,0.12589 -0.55172,0.12908 -1.06693,0.36005 -1.61107,0.51449 -0.56031,0.182 -1.11711,0.38296 -1.66295,0.603 -0.15609,0.0705 -1.35153,0.7051 -0.76462,0.34449 0.33387,-0.20514 1.35386,-0.78989 1.0167,-0.5902 -0.17696,0.10482 -3.13637,1.83757 -0.53725,0.30344 -0.0893,0.056 -0.17762,0.11357 -0.26785,0.16804 -3.05244,1.84264 -1.29045,0.75854 -0.54946,0.34293 0.74267,-0.41656 -1.52769,0.88634 -0.73212,0.47869 -0.46914,0.25244 -0.85917,0.61841 -1.25323,0.97308 -0.39928,0.36524 -0.83641,0.70991 -1.13136,1.16918 -0.31561,0.38701 -0.54919,0.84035 -0.90636,1.19584 -0.26593,0.41154 -0.5591,0.80243 -0.82214,1.21734 -0.27006,0.41336 -0.55763,0.81237 -0.79254,1.24894 -0.26548,0.37486 -0.43229,0.81728 -0.60692,1.24052 -0.23322,0.4446 -0.41724,0.9144 -0.72016,1.31973 -0.23111,0.51217 -0.54165,0.99729 -0.6412,1.55927 -0.17901,0.53484 -0.50987,0.99541 -0.68694,1.53304 -0.24662,0.54907 -0.3994,1.13371 -0.60051,1.69959 -0.23954,0.54721 -0.39875,1.12134 -0.62865,1.67299 -0.15324,0.56906 -0.28933,1.13266 -0.38007,1.71547 -0.12137,0.51027 -0.27218,1.00909 -0.365,1.52582 -0.1485,0.45558 -0.28807,0.89572 -0.3279,1.37839 -0.11919,0.55436 -0.3225,1.08667 -0.37153,1.6552 -0.12005,0.52421 -0.29531,1.03591 -0.30262,1.57819 -0.0801,0.66907 -0.19846,1.33057 -0.3108,1.99478 0,0 -1.33209,0.67873 -1.33209,0.67873 z"
       inkscape:connector-curvature="0" />
    <path
       style="fill:#ff6600;stroke-width:0.2;stroke-miterlimit:4;stroke-dasharray:none"
       id="path187"
       d="m 159.07786,158.98166 c -0.4504,-0.24578 -0.92356,-0.45191 -1.4245,-0.56727 -0.37149,-0.1167 -0.63479,-0.0297 -0.97001,0.1213 0.37322,-0.21105 0.744,-0.42646 1.11964,-0.63315 0.0558,-0.0307 -0.10471,0.0727 -0.15965,0.10492 -0.48469,0.2841 -0.97028,0.56673 -1.459,0.84383 -0.83127,0.47132 1.59198,-1.00631 0.80741,-0.43983 -0.3302,0.20292 -0.57539,0.50113 -0.81066,0.80244 -0.25484,0.35064 -0.52298,0.69753 -0.71704,1.0868 -0.12847,0.46689 -0.29744,0.92194 -0.42632,1.3891 -0.12661,0.52504 -0.1439,1.06541 -0.15751,1.6026 0.008,0.63386 -0.0475,1.27287 0.035,1.90262 0.10211,0.61514 0.2966,1.21989 0.55543,1.7867 0.23049,0.53735 0.62253,0.98238 0.92255,1.47992 0.34733,0.57075 0.76378,1.09335 1.14274,1.64296 0.41757,0.51144 0.86011,0.99652 1.35299,1.43601 0.43122,0.38701 0.95109,0.64988 1.45471,0.9269 0.52477,0.28187 1.10899,0.38979 1.6663,0.58515 0.49452,0.18588 1.01182,0.24182 1.53458,0.27393 0.51314,0.0142 0.99937,0.20844 1.5016,0.30357 0.38952,0.0725 0.78652,0.0821 1.18152,0.0887 0.37691,0.003 0.75384,5.3e-4 1.13076,2.7e-4 0.375,-0.0213 0.76152,0.0533 1.12277,-0.06 0.33428,-0.19089 0.7582,-0.15233 1.07991,-0.34893 1.90401,-1.05418 -3.77394,2.19575 0.87527,-0.51043 -2.2444,1.39343 -0.73047,0.363 -0.26325,-0.0626 0.22532,-0.2473 0.47331,-0.45585 0.67451,-0.7244 0.22669,-0.32717 0.46616,-0.64975 0.64103,-1.00867 0.21445,-0.33962 0.38775,-0.6921 0.49998,-1.07758 0.0401,-0.35038 0.11915,-0.67575 0.24267,-1.00617 0.14391,-0.4014 0.17743,-0.82906 0.20252,-1.25137 0.0393,-0.53426 0.0253,-1.05449 -0.0822,-1.57852 -0.17885,-0.566 -0.17139,-1.16504 -0.29319,-1.74004 -0.14948,-0.54107 -0.23311,-1.09474 -0.42191,-1.62395 -0.11642,-0.50532 -0.35253,-0.9671 -0.51805,-1.45578 -0.23568,-0.34378 -0.3131,-0.76975 -0.51945,-1.12338 -0.15164,-0.32946 -0.3511,-0.62304 -0.535,-0.93295 -0.1443,-0.25994 -0.37136,-0.47964 -0.60513,-0.66343 -0.31637,-0.26113 -0.6499,-0.49958 -0.99955,-0.71532 -0.36462,-0.10858 -0.65339,-0.35796 -1.00711,-0.49052 -0.33994,-0.11707 -0.70347,-0.12566 -1.05936,-0.13515 -0.42824,-0.006 -0.85657,-0.004 -1.28484,-10e-4 -0.38172,0.0297 -0.78724,-0.0661 -1.15202,0.0621 -0.36632,0.15016 -0.74729,0.23286 -1.13809,0.28446 -0.35829,0.0316 -0.71822,0.0369 -1.0777,0.0372 -0.3411,-2.7e-4 -0.68221,-0.001 -1.02331,-0.003 -0.36035,0.0416 -0.70077,0.21339 -1.06725,0.28588 -0.40011,0.20369 -0.82478,0.33728 -1.22838,0.53284 -0.43295,0.13386 -0.83754,0.30552 -1.25117,0.48884 -0.0654,0.0398 -0.12888,0.0828 -0.19611,0.11939 -1.63333,0.88811 1.724,-1.0978 0.29018,-0.15562 0,0 -1.39452,0.54359 -1.39452,0.54359 v 0 c 0.80373,-0.51431 1.61785,-1.01333 2.47347,-1.43667 0.41048,-0.18144 0.82947,-0.32697 1.24701,-0.48999 0.40901,-0.18707 0.83183,-0.34431 1.25028,-0.50809 0.36282,-0.0903 0.70971,-0.27169 1.08837,-0.26032 0.3414,-6e-5 0.6828,0.002 1.0242,8e-4 0.35523,-0.004 0.71155,-0.006 1.06437,-0.0529 0.38709,-0.0601 0.75749,-0.17285 1.12862,-0.29641 0.38733,-0.0614 0.78199,-0.0186 1.17304,-0.0328 0.42943,-5.3e-4 0.85891,-0.004 1.28827,0.006 0.36892,0.0152 0.74356,0.0386 1.09008,0.17819 0.34958,0.15319 0.66082,0.37919 1.02001,0.51329 0.35035,0.22449 0.69081,0.46455 1.0124,0.72821 0.24135,0.20044 0.48295,0.43187 0.63105,0.70965 0.18564,0.30998 0.38277,0.60571 0.53617,0.93472 0.20852,0.36482 0.28936,0.79813 0.53025,1.15182 0.16116,0.48947 0.40034,0.94924 0.5149,1.45419 0.19036,0.53631 0.28069,1.09281 0.42877,1.64175 0.12895,0.57415 0.11653,1.174 0.2933,1.74111 0.11655,0.53548 0.14531,1.06173 0.10584,1.61011 -0.0198,0.43467 -0.0544,0.87344 -0.17987,1.29223 -0.12791,0.32948 -0.23521,0.63602 -0.24661,0.99353 -0.10832,0.39137 -0.24737,0.77034 -0.49461,1.09839 -0.15316,0.37933 -0.40445,0.69967 -0.62522,1.03853 -0.20654,0.27602 -0.41869,0.51049 -0.66858,0.74442 -0.61294,0.68111 -1.55363,1.08741 -2.28399,1.57746 2.6127,-1.5338 0.0163,0.0752 -0.88327,0.50242 -0.35932,0.12455 -0.74127,0.18302 -1.09746,0.32221 -0.37793,0.0587 -0.7615,0.0235 -1.14311,0.0333 -0.37755,0.002 -0.75516,0.003 -1.13266,-0.003 -0.40019,-0.01 -0.80187,-0.0292 -1.19478,-0.11186 -0.49466,-0.10482 -0.97844,-0.28542 -1.48901,-0.28894 -0.53131,-0.0413 -1.05447,-0.11413 -1.55523,-0.30774 -0.56368,-0.19444 -1.15509,-0.30708 -1.6791,-0.60581 -0.5156,-0.27663 -1.03582,-0.56081 -1.47153,-0.95688 -0.50105,-0.44699 -0.94577,-0.94652 -1.36876,-1.46753 -0.38347,-0.5504 -0.8002,-1.07689 -1.15296,-1.64807 -0.30207,-0.50293 -0.6985,-0.95178 -0.92911,-1.49562 -0.26482,-0.57965 -0.46669,-1.19597 -0.57491,-1.82447 -0.0994,-0.63573 -0.034,-1.28221 -0.047,-1.92394 0.009,-0.54674 0.0207,-1.09554 0.13799,-1.63226 0.11961,-0.47685 0.31318,-0.92923 0.41319,-1.41104 0.17108,-0.41079 0.45259,-0.75669 0.70325,-1.11905 0.23764,-0.30548 0.46213,-0.63306 0.79159,-0.8432 0.60058,-0.40312 0.26904,-0.18447 1.58423,-0.96269 0.0537,-0.0318 0.21991,-0.11789 0.16636,-0.0859 -0.36446,0.21802 -0.72926,0.43564 -1.09934,0.64397 -0.0562,0.0316 0.10445,-0.0755 0.15668,-0.1133 0.48481,-0.27864 0.96963,-0.55729 1.45445,-0.83593 0.34652,-0.13721 0.66181,-0.15226 1.02438,-0.0409 0.50396,0.13822 0.98033,0.35284 1.44319,0.59369 0,0 -1.25043,0.82273 -1.25043,0.82273 z"
       inkscape:connector-curvature="0" />
    <path
       style="fill:#ff6600;stroke-width:0.2;stroke-miterlimit:4;stroke-dasharray:none"
       id="path189"
       d="m 157.60092,157.33732 c 0.30517,0.50924 0.70346,0.94831 1.05303,1.42385 0.23965,0.3183 0.48567,0.63526 0.73623,0.94731 0.29839,0.26391 0.56407,0.557 0.87736,0.80438 0.3332,0.25846 0.63986,0.56112 0.92001,0.87771 0.36261,0.36759 0.74286,0.71973 1.09014,1.10249 0.42253,0.34852 0.74473,0.77474 1.07551,1.20419 0.31282,0.38502 0.66969,0.73086 1.01942,1.08167 0.32588,0.31761 0.64707,0.63994 0.97035,0.96018 0.27032,0.22358 0.51664,0.48019 0.82234,0.65783 0.27586,0.22078 0.47669,0.50828 0.76254,0.71681 0.26466,0.11948 0.48407,0.3069 0.74806,0.43294 0.22738,0.11791 0.33176,0.33573 0.58749,0.41808 0.25782,0.0938 0.49494,0.25842 0.74282,0.38711 0.24967,0.10272 0.48847,0.25507 0.73693,0.37598 0.19116,0.0579 0.31937,0.14872 0.45977,0.2962 0.1378,0.0733 0.28577,0.12647 0.43805,0.16012 0.0452,0.0128 0.0659,-0.003 0.1072,-0.003 0.0208,-5e-5 0.0415,-1e-4 0.0623,-1.5e-4 0,0 -1.21871,0.88684 -1.21871,0.88684 v 0 c -0.0211,2.6e-4 -0.0422,5.3e-4 -0.0633,7.9e-4 -0.0486,5.3e-4 -0.0843,-0.0144 -0.13112,-0.03 -0.16926,-0.0542 -0.33767,-0.11898 -0.4788,-0.22988 -0.12583,-0.12723 -0.2708,-0.18201 -0.43151,-0.25411 -0.24627,-0.12669 -0.48322,-0.27427 -0.73936,-0.37896 -0.24022,-0.13125 -0.47165,-0.2888 -0.73192,-0.37531 -0.23458,-0.11122 -0.37024,-0.31037 -0.5939,-0.42841 -0.26285,-0.13799 -0.50134,-0.31646 -0.76189,-0.4568 -0.2734,-0.21469 -0.47537,-0.49534 -0.75483,-0.70384 -0.30514,-0.19477 -0.56575,-0.45308 -0.83666,-0.69038 -0.32175,-0.3215 -0.64712,-0.63934 -0.96781,-0.96189 -0.3565,-0.35309 -0.71654,-0.7057 -1.02956,-1.09878 -0.3261,-0.42779 -0.65515,-0.84208 -1.06901,-1.19285 -0.35122,-0.37998 -0.72936,-0.73462 -1.09275,-1.1026 -0.27999,-0.30707 -0.5806,-0.60205 -0.90897,-0.85629 -0.31611,-0.2598 -0.59715,-0.55224 -0.89524,-0.83174 -0.25003,-0.31452 -0.50195,-0.62956 -0.73577,-0.95462 -0.35439,-0.48272 -0.74689,-0.93657 -1.0692,-1.44384 0,0 1.30075,-0.74062 1.30075,-0.74062 z"
       inkscape:connector-curvature="0" />
    <path
       style="fill:#ff6600;stroke-width:0.2;stroke-miterlimit:4;stroke-dasharray:none"
       id="path191"
       d="m 171.88926,170.26467 c 0.11143,0.76469 0.16389,1.54736 0.34256,2.29997 0.11459,0.57519 0.3862,1.07677 0.68638,1.57102 0.27733,0.44471 0.58341,0.87739 0.92049,1.27853 0.41601,0.42668 0.82628,0.86801 1.3002,1.23099 0.51099,0.43142 1.07126,0.76259 1.66105,1.06947 0.67219,0.28382 1.3038,0.65135 1.92795,1.02658 0.51416,0.33634 1.08863,0.57304 1.60313,0.90608 0.37933,0.21801 0.76714,0.45579 1.06611,0.77925 0.13204,0.17343 0.0725,0.0887 0.18048,0.25281 0,0 -1.29678,0.75776 -1.29678,0.75776 v 0 c -0.0968,-0.15133 -0.0431,-0.0738 -0.16305,-0.23122 -0.29978,-0.30669 -0.67255,-0.53697 -1.04124,-0.75115 -0.5198,-0.3211 -1.08145,-0.57302 -1.59453,-0.90678 -0.62562,-0.36848 -1.25414,-0.73463 -1.92398,-1.01861 -0.59922,-0.30785 -1.15713,-0.66142 -1.67907,-1.09049 -0.47655,-0.37699 -0.89806,-0.81952 -1.3184,-1.25727 -0.33886,-0.40955 -0.65692,-0.84223 -0.93173,-1.29767 -0.30868,-0.50765 -0.58861,-1.02263 -0.70485,-1.61376 -0.18376,-0.76251 -0.21735,-1.55633 -0.36681,-2.32678 0,0 1.33209,-0.67873 1.33209,-0.67873 z"
       inkscape:connector-curvature="0" />
    <path
       style="fill:#ff6600;stroke-width:0.2;stroke-miterlimit:4;stroke-dasharray:none"
       id="path193"
       d="m 170.33148,169.00667 c 1.06024,-0.7781 2.20236,-1.32776 3.47406,-1.59643 0.8184,-0.0636 1.62494,-0.18507 2.43791,-0.2996 0.89312,-0.0571 1.75986,-0.27664 2.64059,-0.41917 0.76406,-0.005 1.52346,0.1032 2.2842,0.16486 0.65327,0.13556 1.2911,0.30362 1.88375,0.6145 0.63075,0.30298 1.22661,0.66675 1.80846,1.05429 0.55818,0.49375 1.08085,1.04005 1.53485,1.63166 0.45162,0.58935 0.76849,1.27445 1.0575,1.95556 0.21851,0.57975 0.27806,1.19459 0.30449,1.80816 0.0184,0.561 0.0123,1.12251 0.01,1.68372 0.11796,0.51193 0.19605,0.98471 0.13861,1.50908 -0.0622,0.43 -0.10267,0.86212 -0.12543,1.29586 -0.0192,0.45273 -0.19852,0.87916 -0.28633,1.32209 -0.0852,0.49536 0.0644,1.00031 0.15998,1.48643 0.14705,0.31372 0.23911,0.68697 0.44312,0.96926 0.066,0.0777 0.14721,0.13602 0.23156,0.1913 0,0 -1.27054,0.8078 -1.27054,0.8078 v 0 c -0.0924,-0.071 -0.18193,-0.14481 -0.25419,-0.23752 -0.20933,-0.30743 -0.3119,-0.69111 -0.46912,-1.02722 -0.0922,-0.50363 -0.25395,-1.02555 -0.18301,-1.53666 0.0752,-0.44136 0.24815,-0.8603 0.29207,-1.30237 0.018,-0.4373 0.0576,-0.87336 0.12381,-1.30615 0.0616,-0.52242 0.0127,-0.98558 -0.12983,-1.49533 0.003,-0.55957 0.008,-1.11924 -0.005,-1.67873 -0.0236,-0.59654 -0.0702,-1.19668 -0.27768,-1.7624 -0.27886,-0.67161 -0.58925,-1.34645 -1.03614,-1.92358 -0.44557,-0.5778 -0.95439,-1.11605 -1.5096,-1.58935 -0.58118,-0.37989 -1.17222,-0.74251 -1.80119,-1.03906 -0.5844,-0.28807 -1.20967,-0.45588 -1.85071,-0.5676 -0.75033,-0.0672 -1.50336,-0.17942 -2.25763,-0.13853 -0.87881,0.14837 -1.74849,0.34781 -2.63946,0.4147 -0.81197,0.12158 -1.62346,0.21406 -2.43736,0.31295 -0.382,0.089 -0.75832,0.18765 -1.12401,0.3325 -0.13361,0.0529 -0.511,0.2584 -0.39412,0.17479 0.19361,-0.13849 1.47247,-0.8776 0.61539,-0.36229 0,0 -1.38922,0.55248 -1.38922,0.55248 z"
       inkscape:connector-curvature="0" />
    <path
       style="fill:#ff6600;stroke-width:0.2;stroke-miterlimit:4;stroke-dasharray:none"
       id="path195"
       d="m 177.32749,178.80748 c 0.68545,0.47087 1.49622,0.70046 2.27657,0.96297 0.81197,0.27262 1.61465,0.52163 2.46414,0.6444 0.85779,0.17244 1.71027,0.35022 2.52901,0.66338 0.63165,0.23122 1.22576,0.52247 1.78205,0.89954 0.0768,0.0437 0.15363,0.0874 0.23044,0.13108 0,0 -1.25145,0.81202 -1.25145,0.81202 v 0 c -0.0784,-0.0467 -0.15674,-0.0934 -0.23511,-0.1401 -0.54624,-0.36956 -1.13756,-0.64238 -1.75391,-0.87573 -0.81474,-0.29662 -1.65908,-0.47751 -2.50984,-0.63925 -0.8533,-0.13361 -1.66244,-0.39144 -2.47995,-0.66543 -0.7949,-0.27231 -1.6154,-0.51351 -2.31547,-0.99371 0,0 1.26352,-0.79917 1.26352,-0.79917 z"
       inkscape:connector-curvature="0" />
    <path
       style="fill:#ff6600;stroke-width:0.2;stroke-miterlimit:4;stroke-dasharray:none"
       id="path197"
       d="m 158.19914,158.7757 c 0.38986,-0.46147 0.82474,-0.87151 1.33945,-1.18813 0.70165,-0.44112 1.37217,-0.97407 2.17169,-1.21953 -0.0536,0.12606 0.34178,-0.14073 0.26094,-0.0955 -0.39313,0.21989 -1.56324,0.8959 -1.17476,0.66788 0.52639,-0.30897 1.08599,-0.75781 1.71392,-0.9066 0.34898,-0.0762 0.70938,-0.0787 1.06514,-0.0828 0.39894,-0.004 0.7979,2.7e-4 1.19684,8e-4 0.42996,0.001 0.85993,5.3e-4 1.28989,0.002 0.45467,0.097 0.88122,0.24582 1.29854,0.44418 0.47448,0.18026 0.90231,0.46519 1.35039,0.70147 0.44507,0.28507 0.95482,0.44479 1.41558,0.69392 0.44767,0.25504 0.87727,0.5413 1.32184,0.80558 0.47623,0.31783 0.85026,0.74195 1.22933,1.16528 0.46416,0.56008 0.75844,1.21941 1.03876,1.88361 0.30767,0.74822 0.52194,1.52076 0.72625,2.30146 0.21288,0.77097 0.34087,1.56079 0.42668,2.35486 0,0 -1.32062,0.68943 -1.32062,0.68943 v 0 c -0.0714,-0.78921 -0.19208,-1.57423 -0.40602,-2.33859 -0.21034,-0.77151 -0.41122,-1.54114 -0.7198,-2.2817 -0.27339,-0.64933 -0.56136,-1.29345 -1.0193,-1.83747 -0.37181,-0.41064 -0.73751,-0.82404 -1.20787,-1.12652 -0.43948,-0.26668 -0.87026,-0.5477 -1.31826,-0.79702 -0.4699,-0.23444 -0.96362,-0.42202 -1.41471,-0.69635 -0.44449,-0.24 -0.87666,-0.51104 -1.34911,-0.69352 -0.40024,-0.18759 -0.82142,-0.32752 -1.26077,-0.39024 -0.43041,7.9e-4 -0.86081,-5.3e-4 -1.29121,-0.001 -0.39872,-0.001 -0.79747,-0.002 -1.19615,0.003 -0.34963,0.01 -0.70448,0.0166 -1.04247,0.11674 -0.0945,0.0348 -0.36464,0.16904 -0.27821,0.11743 0.3815,-0.22782 1.5373,-0.89197 1.15066,-0.67301 -0.65297,0.3698 -1.03347,0.73925 -1.67179,0.89582 -1.19723,0.44518 2.06446,-1.27365 0.41141,-0.24031 -0.52572,0.29425 -0.96724,0.6785 -1.36327,1.13379 0,0 -1.37299,0.59167 -1.37299,0.59167 z"
       inkscape:connector-curvature="0" />
    <path
       style="fill:#ff6600;stroke-width:0.2;stroke-miterlimit:4;stroke-dasharray:none"
       id="path199"
       d="m 161.83513,158.45156 c 0.75372,0.77548 1.52071,1.53796 2.28556,2.30243 0.82011,0.798 1.62189,1.6085 2.36718,2.47682 0.73841,0.80021 1.61871,1.46246 2.58,1.96953 0.42681,0.20883 0.8859,0.3245 1.34383,0.43944 0,0 -1.2197,0.83918 -1.2197,0.83918 v 0 c -0.46251,-0.12677 -0.92624,-0.2542 -1.35628,-0.47291 -0.96855,-0.52731 -1.86223,-1.19905 -2.6053,-2.01761 -0.74444,-0.86398 -1.54766,-1.66874 -2.36166,-2.46726 -0.76582,-0.7662 -1.52967,-1.53452 -2.30648,-2.28962 0,0 1.27285,-0.78 1.27285,-0.78 z"
       inkscape:connector-curvature="0" />
    <path
       style="fill:#ff6600;stroke-width:0.2;stroke-miterlimit:4;stroke-dasharray:none"
       id="path201"
       d="m 164.48096,158.45156 c 0.72664,0.76756 1.47674,1.50648 2.28376,2.18889 0.85387,0.66129 1.7532,1.26505 2.66977,1.83582 0,0 -1.24007,0.79863 -1.24007,0.79863 v 0 c -0.91651,-0.58236 -1.82205,-1.18645 -2.67802,-1.85543 -0.80841,-0.68913 -1.55431,-1.44024 -2.30828,-2.18791 0,0 1.27284,-0.78 1.27284,-0.78 z"
       inkscape:connector-curvature="0" />
    <path
       style="fill:#ff6600;stroke-width:0.2;stroke-miterlimit:4;stroke-dasharray:none"
       id="path203"
       d="m 174.29713,170.43501 c 0.76158,0.47588 1.51053,0.97506 2.23619,1.5045 0.82811,0.60778 1.64046,1.2358 2.45872,1.85689 0.78671,0.57407 1.61748,1.0315 2.56012,1.27941 0.55332,0.22796 1.1231,0.2722 1.7127,0.28086 0,0 -1.19851,0.86601 -1.19851,0.86601 v 0 c -0.59575,-0.0222 -1.17398,-0.0906 -1.73503,-0.30908 -0.94799,-0.2729 -1.78841,-0.74834 -2.58316,-1.33122 -0.8193,-0.61831 -1.63172,-1.24522 -2.45861,-1.85341 -0.72471,-0.52246 -1.46789,-1.02682 -2.24285,-1.47123 0,0 1.25043,-0.82273 1.25043,-0.82273 z"
       inkscape:connector-curvature="0" />
    <path
       style="fill:#ff6600;stroke-width:0.2;stroke-miterlimit:4;stroke-dasharray:none"
       id="path205"
       d="m 176.94297,168.9231 c 0.80202,0.40894 1.5383,0.92031 2.29155,1.4095 0.87306,0.59787 1.79455,1.12721 2.73976,1.60225 0.69538,0.29662 1.38954,0.54913 2.13475,0.67717 0,0 -1.20543,0.84235 -1.20543,0.84235 v 0 c -0.74973,-0.15003 -1.45849,-0.40269 -2.15843,-0.71178 -0.94686,-0.48411 -1.87494,-1.01119 -2.75215,-1.61341 -0.74935,-0.49215 -1.48916,-0.99493 -2.30048,-1.38334 0,0 1.25043,-0.82274 1.25043,-0.82274 z"
       inkscape:connector-curvature="0" />
    <path
       style="fill:#ff6600;stroke-width:0.2;stroke-miterlimit:4;stroke-dasharray:none"
       id="path209"
       d="m 162.08584,183.72551 c -0.66199,0.14171 -1.3329,0.22475 -2.00672,0.28195 -0.49586,-0.0297 -0.94223,0.14897 -1.40745,0.28706 -0.44904,0.10405 -0.91141,0.11457 -1.36997,0.12747 -0.47968,0.006 -0.95943,0.006 -1.43914,0.004 -0.51811,-0.001 -1.03623,-0.002 -1.55434,-0.004 -0.62323,0.0469 -1.22202,-0.13913 -1.83165,-0.23867 -0.68125,-0.12861 -1.36319,-0.29436 -2.03578,-0.47067 -0.91531,-0.18288 -1.80534,-0.44286 -2.68851,-0.74211 -0.92512,-0.22248 -1.80268,-0.59257 -2.70694,-0.88041 -0.83054,-0.28988 -1.62714,-0.66343 -2.44839,-0.97728 -0.81021,-0.29223 -1.61705,-0.56705 -2.46301,-0.73513 -0.68018,-0.19907 -1.35879,-0.39045 -2.01077,-0.67094 -0.74115,-0.29821 -1.44661,-0.67464 -2.17705,-0.99761 -0.54698,-0.29253 -1.08256,-0.61019 -1.60529,-0.94456 -0.46372,-0.3235 -0.93698,-0.63686 -1.35542,-1.01871 -0.36375,-0.26396 -0.67247,-0.58568 -1.03192,-0.85524 -0.093,-0.0699 -0.18966,-0.13481 -0.2916,-0.19033 0.93919,-0.68252 0.97884,-1.11637 1.64852,-0.71311 0.39417,0.22609 0.79184,0.47627 1.15998,0.74816 0.54652,0.4065 1.02182,0.88654 1.48786,1.38115 0.49789,0.45772 0.99226,0.92155 1.45586,1.41477 0.52877,0.56034 1.02859,1.14977 1.60971,1.65695 0.5988,0.48031 1.19151,0.96686 1.76063,1.48226 0.37324,0.37567 0.73547,0.75946 1.12568,1.11998 0.37427,0.36096 0.77082,0.7002 1.09591,1.10714 0.41703,0.41339 0.71833,0.92051 1.07078,1.38417 0.32628,0.44896 0.66925,0.88952 1.02182,1.31967 0.39598,0.43167 0.63697,0.96319 0.95871,1.44286 0.18224,0.36859 0.49347,0.63848 0.68369,1.00067 0.19341,0.26311 0.34804,0.55279 0.4992,0.84166 0.0378,0.10291 0.095,0.16722 0.16912,0.24496 0.15913,0.15604 0.15964,0.37775 0.34462,0.50794 0.0794,0.0478 0.16402,0.088 0.25629,0.0989 0.005,0.008 0.011,-0.008 0.0119,-0.008 0,0 -1.22884,0.87989 -1.22884,0.87989 v 0 c -0.009,-0.004 -0.016,-0.0107 -0.0256,-0.013 -0.10121,-0.0417 -0.19999,-0.0893 -0.2871,-0.15685 -0.17637,-0.15255 -0.21146,-0.35269 -0.35613,-0.52515 -0.0846,-0.0879 -0.15244,-0.1668 -0.19148,-0.28329 -0.14323,-0.29246 -0.2976,-0.58134 -0.49228,-0.84332 -0.186,-0.35694 -0.49907,-0.62281 -0.67248,-0.98954 -0.3129,-0.47998 -0.55283,-1.00407 -0.94717,-1.43165 -0.35514,-0.43065 -0.69945,-0.87313 -1.02673,-1.32416 -0.34741,-0.4657 -0.65251,-0.96687 -1.0674,-1.38021 -0.32542,-0.39759 -0.71867,-0.73157 -1.08866,-1.08692 -0.38589,-0.36257 -0.74535,-0.74711 -1.11614,-1.12319 -0.56957,-0.51328 -1.16016,-1.00065 -1.75615,-1.48285 -0.5801,-0.51556 -1.08987,-1.10082 -1.62047,-1.66616 -0.46691,-0.49025 -0.96174,-0.95323 -1.45721,-1.41406 -0.46143,-0.48681 -0.92979,-0.96194 -1.47564,-1.35592 -0.37132,-0.26292 -0.76173,-0.51065 -1.16104,-0.72694 -0.59825,-0.3083 -0.89457,0.39958 0.87649,-0.93094 0.0999,0.0688 0.1985,0.13959 0.29403,0.21444 0.35383,0.27938 0.66896,0.59974 1.03034,0.86982 0.41752,0.37068 0.88237,0.68136 1.34156,0.99746 0.52099,0.32417 1.04227,0.65169 1.58915,0.93015 0.72493,0.33121 1.4332,0.69951 2.17384,0.99525 0.64929,0.26525 1.32091,0.459 1.99619,0.64638 0.84571,0.18398 1.65659,0.46509 2.46944,0.75984 0.81802,0.31697 1.61652,0.68198 2.446,0.96927 0.9013,0.2974 1.78337,0.65386 2.70667,0.88306 0.88102,0.29954 1.77363,0.54222 2.68536,0.72983 0.67494,0.16297 1.34895,0.34271 2.03264,0.45813 0.60412,0.10283 1.2011,0.26445 1.81966,0.2171 0.51978,-5.2e-4 1.03956,-0.001 1.55934,1.8e-4 0.47861,5.3e-4 0.95732,0.005 1.43582,-0.008 0.45277,-0.0149 0.9101,-0.0359 1.34867,-0.15973 0.46715,-0.13865 0.92476,-0.27683 1.41968,-0.25836 0.67262,-0.0586 1.34145,-0.15207 2.00107,-0.29853 0,0 -1.19167,0.90227 -1.19167,0.90227 z"
       inkscape:connector-curvature="0" />
    <text
       xml:space="preserve"
       style="font-style:normal;font-weight:normal;font-size:10.58333302px;line-height:1.25;font-family:sans-serif;letter-spacing:0px;word-spacing:0px;fill:#000000;fill-opacity:1;stroke:none;stroke-width:0.26458332"
       x="143.63095"
       y="218.75894"
       id="text213"><tspan
         sodipodi:role="line"
         id="tspan211"
         x="143.63095"
         y="218.75894"
         style="font-size:7.05555534px;stroke-width:0.26458332">For contributors</tspan></text>
  </g>
</svg>
